<?xml version="1.0" ?><svg data-name="Your Icons" id="Your_Icons" viewBox="0 0 48 48" xmlns="http://www.w3.org/2000/svg"><defs><style>.cls-1{fill:#939598;}.cls-2{fill:#8dc63f;}.cls-3{fill:#fff;}</style></defs><title/><path class="cls-1" d="M37,15H33.91A5.47,5.47,0,0,1,34,16a6,6,0,1,1-12,0,6.53,6.53,0,0,1,.08-1H17.15l-1.27-3.64A5,5,0,0,0,11.16,8H8a1,1,0,0,0,0,2h3.16A3,3,0,0,1,14,12l1,3h0l2.47,7,2.65,7.62A5,5,0,0,0,24.85,33H30a1,1,0,0,0,0-2H24.85A3,3,0,0,1,22,29H32.77a6.07,6.07,0,0,0,5.94-4.74l1.22-5.63A3,3,0,0,0,37,15Zm1,3.21-1.22,5.63a4.08,4.08,0,0,1-4,3.16H21.35l-2-5.64L17.84,17h2.22a7.87,7.87,0,0,0,2.35,4.72A8,8,0,0,0,35.94,17h1a1,1,0,0,1,.82.39A1,1,0,0,1,38,18.21Z"/><path class="cls-1" d="M20,33a3,3,0,1,0,3,3A3,3,0,0,0,20,33Zm0,4a1,1,0,1,1,1-1A1,1,0,0,1,20,37Z"/><path class="cls-1" d="M34,33a3,3,0,1,0,3,3A3,3,0,0,0,34,33Zm0,4a1,1,0,1,1,1-1A1,1,0,0,1,34,37Z"/><path class="cls-2" d="M28,8a8,8,0,1,0,8,8A8,8,0,0,0,28,8Z"/><path class="cls-3" d="M27.38,19.06a1,1,0,0,1-.69-.28L24.81,17a1,1,0,1,1,1.39-1.44l1.18,1.13,2.43-2.33a1,1,0,0,1,1.42,0,1,1,0,0,1,0,1.41l-3.13,3A1,1,0,0,1,27.38,19.06Z"/></svg>