<svg width="142" height="129" viewBox="0 0 142 129" fill="none" xmlns="http://www.w3.org/2000/svg">
<path d="M122.105 73.7957C120.159 84.4059 114.962 94.1487 107.234 101.675C99.5062 109.201 89.6294 114.138 78.9713 115.803C68.3133 117.467 57.4014 115.777 47.7466 110.965C38.0918 106.154 30.1718 98.4598 25.0833 88.9482L23.4736 89.1962C28.6511 99.1307 36.8143 107.191 46.8136 112.242C56.8129 117.293 68.1447 119.081 79.2133 117.353C90.282 115.625 100.53 110.469 108.514 102.61C116.498 94.7521 121.816 84.5874 123.72 73.5476L122.105 73.7957ZM62.6875 11.5179C51.6232 13.2568 41.3812 18.4166 33.3989 26.2731C25.4165 34.1295 20.0946 44.2882 18.18 55.3234L19.7633 55.0754C21.7036 44.4571 26.899 34.7054 34.6294 27.172C42.3597 19.6386 52.2422 14.6965 62.907 13.0309C73.5718 11.3652 84.4906 13.0585 94.15 17.876C103.809 22.6936 111.731 30.3967 116.816 39.9176L118.426 39.6696C113.237 29.7467 105.071 21.6973 95.0747 16.6504C85.0785 11.6036 73.7532 9.8125 62.6875 11.5284V11.5179Z" fill="black"/>
<path d="M125.762 33.4628C124.814 33.1774 124.001 32.557 123.476 31.7172C122.951 30.8774 122.748 29.8753 122.907 28.8975C122.996 28.3509 122.973 27.7918 122.84 27.2542C122.706 26.7167 122.465 26.2119 122.13 25.7705C121.796 25.3292 121.375 24.9605 120.893 24.687C120.411 24.4134 119.879 24.2407 119.329 24.1792C118.344 24.0669 117.434 23.601 116.767 22.8681C116.1 22.1352 115.722 21.1852 115.703 20.1945C115.693 19.6415 115.572 19.0963 115.345 18.5918C115.118 18.0874 114.791 17.6343 114.384 17.2602C113.977 16.886 113.498 16.5985 112.976 16.4152C112.454 16.2319 111.9 16.1566 111.349 16.1939C110.358 16.2595 109.378 15.9634 108.59 15.3605C107.802 14.7577 107.259 13.8892 107.063 12.9164C106.955 12.3732 106.738 11.8575 106.425 11.4008C106.112 10.9441 105.709 10.5558 105.241 10.2596C104.773 9.96343 104.25 9.7655 103.703 9.67785C103.156 9.5902 102.597 9.61466 102.06 9.74975C101.098 9.99141 100.082 9.87578 99.1997 9.42438C98.3173 8.97297 97.6288 8.2165 97.2622 7.29559C97.0597 6.78048 96.7545 6.31196 96.3652 5.91855C95.9758 5.52514 95.5105 5.21508 94.9975 5.00722C94.4845 4.79936 93.9346 4.69805 93.3812 4.70948C92.8279 4.7209 92.2826 4.8448 91.7786 5.07364C90.8729 5.48279 89.8491 5.54772 88.8989 5.25626C87.9488 4.96481 87.1375 4.33696 86.617 3.49031C86.3241 3.01947 85.9384 2.61318 85.4834 2.29621C85.0284 1.97925 84.5136 1.75823 83.9704 1.64664C83.4273 1.53504 82.8671 1.5352 82.324 1.6471C81.7809 1.759 81.2662 1.98031 80.8114 2.29753C80.0024 2.86206 79.0165 3.1148 78.0358 3.00905C77.055 2.90331 76.1456 2.44624 75.4756 1.72226C75.1037 1.31146 74.6522 0.980615 74.1484 0.749837C73.6447 0.519058 73.0993 0.393174 72.5453 0.379844C71.9914 0.366514 71.4405 0.466017 70.9263 0.672298C70.412 0.878579 69.9451 1.18733 69.5539 1.57976C68.8538 2.28155 67.9216 2.70366 66.9324 2.76682C65.9431 2.82999 64.9648 2.52987 64.1811 1.92281C63.7426 1.58569 63.2403 1.341 62.7046 1.20354C62.1688 1.06608 61.6108 1.0387 61.0642 1.12306C60.5175 1.20743 59.9937 1.40177 59.5243 1.69436C59.0549 1.98694 58.6498 2.37168 58.3333 2.82531C57.7692 3.64142 56.9277 4.22466 55.9655 4.46643C55.0032 4.70819 53.986 4.592 53.1031 4.13948C52.6116 3.88525 52.0736 3.73366 51.5217 3.69392C50.9698 3.65417 50.4156 3.72711 49.8927 3.9083C49.3699 4.08948 48.8894 4.37512 48.4805 4.74785C48.0715 5.12058 47.7427 5.5726 47.5139 6.07642C47.1027 6.97871 46.3777 7.70092 45.4739 8.10867C44.57 8.51642 43.5488 8.58196 42.6003 8.29309C42.0694 8.13373 41.5117 8.08365 40.9609 8.14588C40.4102 8.2081 39.8777 8.38134 39.3958 8.65511C38.9138 8.92889 38.4924 9.29753 38.1569 9.73876C37.8214 10.18 37.5789 10.6847 37.4439 11.2223C37.2031 12.1841 36.6203 13.0253 35.8044 13.5887C34.9885 14.152 33.9953 14.399 33.0106 14.2834C32.4609 14.2192 31.904 14.2674 31.3735 14.425C30.843 14.5826 30.3501 14.8464 29.9247 15.2002C29.4992 15.5541 29.1501 15.9908 28.8985 16.4836C28.647 16.9765 28.4981 17.5154 28.4611 18.0675C28.394 19.0573 27.9694 19.989 27.2665 20.6891C26.5635 21.3891 25.6301 21.8098 24.64 21.8728C24.092 21.9101 23.5573 22.0578 23.0677 22.3068C22.5782 22.5558 22.1439 22.9011 21.7911 23.322C21.4382 23.7429 21.1739 24.2307 21.0141 24.7561C20.8543 25.2816 20.8023 25.834 20.8611 26.38C20.9726 27.365 20.7226 28.357 20.1576 29.1714C19.5926 29.9859 18.7511 30.5675 17.7895 30.8081C17.2521 30.9405 16.7472 31.181 16.3057 31.5147C15.8642 31.8485 15.4952 32.2686 15.2212 32.7495C14.9471 33.2303 14.7738 33.762 14.7118 34.3119C14.6498 34.8619 14.7003 35.4188 14.8603 35.9486C15.1415 36.8989 15.0686 37.9188 14.6552 38.8194C14.2418 39.72 13.5158 40.4402 12.612 40.8464C12.1071 41.0735 11.6536 41.4006 11.2789 41.8081C10.9042 42.2155 10.6161 42.6948 10.432 43.2168C10.248 43.7389 10.1718 44.2929 10.2081 44.8452C10.2444 45.3976 10.3925 45.9368 10.6433 46.4303C11.0965 47.3124 11.2119 48.3295 10.9679 49.2906C10.724 50.2518 10.1375 51.0908 9.31862 51.65C8.48975 52.215 7.89844 53.0659 7.6579 54.0397C7.41736 55.0135 7.54452 56.0419 8.01501 56.9278L15.7786 55.7139C17.6338 44.0461 23.1392 33.2664 31.5041 24.9233C39.869 16.5802 50.663 11.1029 62.3356 9.27811C74.0082 7.45337 85.9588 9.37508 96.471 14.7672C106.983 20.1594 115.516 28.7445 120.843 39.2895L128.607 38.0756C128.781 37.0917 128.587 36.0781 128.063 35.2277C127.538 34.3772 126.72 33.7491 125.762 33.4628ZM133.352 72.0381L126.142 73.1675C124.289 84.8418 118.781 95.6277 110.412 103.975C102.043 112.323 91.2426 117.802 79.5636 119.625C67.8845 121.449 55.9281 119.522 45.4128 114.123C34.8974 108.724 26.3645 100.13 21.0406 89.5761L13.8047 90.7056C14.4132 90.984 14.9428 91.4097 15.3455 91.9441C15.7481 92.4786 16.0113 93.105 16.1111 93.7667C16.195 94.3136 16.1681 94.8718 16.0319 95.4081C15.8948 95.9443 15.8679 96.5028 15.9526 97.0498C16.0374 97.5968 16.2322 98.121 16.5252 98.5906C16.8182 99.0602 17.2034 99.4655 17.6574 99.7821C18.1115 100.099 18.625 100.32 19.167 100.433C20.1389 100.629 21.0059 101.173 21.6054 101.963C22.2048 102.753 22.4957 103.734 22.4233 104.723C22.3839 105.276 22.4571 105.831 22.6387 106.355C22.8202 106.878 23.1062 107.359 23.4793 107.769C23.8524 108.179 24.3049 108.508 24.8093 108.738C25.3136 108.967 25.8594 109.092 26.4133 109.104C27.4035 109.126 28.3516 109.508 29.0809 110.178C29.8102 110.848 30.2709 111.761 30.377 112.746C30.377 112.804 30.377 112.878 30.377 112.936C30.4605 113.467 30.6479 113.976 30.9284 114.435C31.209 114.893 31.5772 115.292 32.012 115.608C32.4468 115.924 32.9396 116.152 33.4623 116.277C33.985 116.403 34.5274 116.424 35.0583 116.34C36.0371 116.186 37.0384 116.393 37.8761 116.922C38.7138 117.451 39.331 118.266 39.6131 119.216C39.7706 119.748 40.0345 120.242 40.3886 120.668C40.7427 121.095 41.1797 121.445 41.6732 121.698C42.1667 121.95 42.7063 122.1 43.2594 122.138C43.8125 122.176 44.3675 122.101 44.8908 121.918C45.826 121.592 46.848 121.617 47.7664 121.987C48.6849 122.358 49.4373 123.05 49.8836 123.934C50.1332 124.428 50.4803 124.866 50.9039 125.222C51.3275 125.577 51.8188 125.843 52.3482 126.004C52.8776 126.164 53.4339 126.215 53.9837 126.154C54.5335 126.094 55.0652 125.922 55.5467 125.65C55.9768 125.407 56.4468 125.242 56.9347 125.164C57.6655 125.054 58.4125 125.143 59.097 125.422C59.7815 125.7 60.3783 126.158 60.8245 126.748C61.1577 127.189 61.5774 127.559 62.0578 127.834C62.5382 128.108 63.0695 128.283 63.6193 128.346C64.1692 128.409 64.7261 128.36 65.2564 128.201C65.7866 128.043 66.2791 127.778 66.7039 127.423C67.4643 126.787 68.4305 126.45 69.4215 126.476C70.4124 126.501 71.3602 126.886 72.0872 127.56C72.4941 127.936 72.9729 128.224 73.4948 128.409C74.0166 128.593 74.5704 128.67 75.1227 128.634C75.6751 128.598 76.2143 128.45 76.7077 128.199C77.2011 127.948 77.6384 127.6 77.9931 127.175C78.6295 126.415 79.5199 125.912 80.4992 125.759C81.4784 125.605 82.4801 125.812 83.3183 126.341C83.7852 126.639 84.3078 126.838 84.8542 126.927C85.4006 127.016 85.9594 126.993 86.4966 126.859C87.0338 126.725 87.5382 126.484 87.979 126.149C88.4198 125.814 88.7878 125.393 89.0606 124.911C89.5482 124.047 90.3337 123.391 91.2701 123.065C92.2065 122.738 93.2296 122.764 94.1483 123.138C94.6613 123.346 95.2113 123.448 95.7649 123.438C96.3185 123.428 96.8643 123.305 97.3691 123.077C97.8739 122.85 98.3273 122.522 98.7017 122.114C99.0762 121.707 99.3639 121.227 99.5475 120.704C99.876 119.77 100.533 118.987 101.396 118.501C102.26 118.016 103.27 117.861 104.239 118.066C104.781 118.178 105.339 118.18 105.881 118.07C106.423 117.961 106.938 117.743 107.393 117.429C107.848 117.115 108.235 116.713 108.531 116.245C108.826 115.777 109.023 115.255 109.111 114.709C109.267 113.73 109.772 112.841 110.535 112.207C111.297 111.573 112.263 111.237 113.254 111.263C113.809 111.281 114.363 111.187 114.881 110.984C115.398 110.782 115.869 110.475 116.264 110.085C116.66 109.694 116.971 109.227 117.179 108.711C117.388 108.196 117.489 107.643 117.476 107.088C117.457 106.098 117.797 105.135 118.432 104.375C119.067 103.616 119.955 103.112 120.933 102.955C121.48 102.871 122.004 102.677 122.474 102.385C122.944 102.092 123.349 101.707 123.665 101.253C123.982 100.799 124.203 100.285 124.315 99.743C124.426 99.201 124.427 98.642 124.316 98.0997C124.316 98.0364 124.29 97.9783 124.279 97.915C124.132 96.9677 124.322 95.9986 124.817 95.1775C125.312 94.3564 126.08 93.7355 126.987 93.4236C127.51 93.2419 127.991 92.9561 128.4 92.5835C128.81 92.2109 129.14 91.7593 129.37 91.2557C129.6 90.7522 129.726 90.2072 129.74 89.6537C129.754 89.1002 129.656 88.5496 129.451 88.035C129.078 87.1168 129.054 86.0939 129.383 85.1588C129.711 84.2238 130.37 83.441 131.235 82.9578C131.721 82.6859 132.145 82.3177 132.484 81.8758C132.822 81.4339 133.066 80.9276 133.201 80.388C133.337 79.8483 133.36 79.2867 133.271 78.7376C133.182 78.1884 132.981 77.6633 132.681 77.1945C132.179 76.3903 131.971 75.4366 132.093 74.4963C132.216 73.5559 132.66 72.6871 133.352 72.0381Z" fill="black"/>
<path d="M100.223 77.1944C98.0773 82.1261 94.7207 86.436 90.4648 89.7243C86.2089 93.0127 81.1914 95.1729 75.8778 96.0046C70.5642 96.8363 65.1266 96.3126 60.0694 94.4821C55.0123 92.6515 50.4993 89.5735 46.9492 85.5333L45.1547 85.813C48.8559 90.2832 53.6554 93.7145 59.0825 95.7706C64.5096 97.8266 70.3779 98.4367 76.1119 97.541C81.8459 96.6453 87.2485 94.2745 91.7901 90.6613C96.3316 87.0481 99.8559 82.3165 102.017 76.9305L100.223 77.1944ZM65.775 31.3253C60.0403 32.2216 54.6369 34.5923 50.0942 38.2052C45.5514 41.8181 42.0252 46.5493 39.8611 51.935L41.6556 51.6553C43.8035 46.7251 47.1617 42.4171 51.4186 39.131C55.6756 35.8448 60.6935 33.6869 66.0069 32.8573C71.3203 32.0277 76.7571 32.5533 81.8132 34.3854C86.8693 36.2175 91.3808 39.2967 94.9294 43.3375L96.7239 43.0578C93.0223 38.5902 88.2242 35.1602 82.7991 33.1036C77.3741 31.047 71.508 30.4342 65.775 31.3253Z" fill="black"/>
<path d="M49.6461 85.1533C52.9564 88.5554 57.0337 91.1149 61.5364 92.6176C66.0392 94.1202 70.8364 94.5222 75.5264 93.7898C80.2165 93.0575 84.6628 91.2122 88.4931 88.4085C92.3235 85.6047 95.4263 81.924 97.542 77.6747L49.6461 85.1533Z" fill="black"/>
<path d="M92.2694 43.7492L44.3208 51.2384C46.4322 46.9777 49.5354 43.286 53.3698 40.4737C57.2041 37.6614 61.6575 35.8105 66.3557 35.0767C71.0539 34.3429 75.8596 34.7476 80.3689 36.2567C84.8782 37.7658 88.9594 40.3353 92.2694 43.7492Z" fill="black"/>
<path d="M137.285 39.089L0.0301666 60.5089L0.269423 62.042L137.524 40.6221L137.285 39.089Z" fill="black"/>
<path d="M141.606 67.7958L4.07884 88.6333L4.31159 90.1695L141.839 69.332L141.606 67.7958Z" fill="black"/>
<path d="M24.4764 71.9959C24.7543 73.6346 24.5997 75.3173 24.0278 76.8779C23.4816 78.3769 22.5363 79.6981 21.2939 80.699C20.0144 81.7031 18.4986 82.3619 16.8916 82.6124C15.2846 82.8628 13.6402 82.6965 12.1158 82.1293C10.6244 81.5517 9.32069 80.5749 8.34751 79.3057C7.32767 77.9915 6.66742 76.4345 6.43168 74.7879C6.12311 73.0644 6.26305 71.2905 6.83807 69.6368C7.36205 68.158 8.30227 66.8622 9.54556 65.9054C10.8621 64.93 12.4031 64.3019 14.0264 64.0793C15.6165 63.805 17.2501 63.9356 18.7764 64.4593C20.2453 64.9934 21.5284 65.941 22.4708 67.1879C23.5457 68.5891 24.2369 70.2462 24.4764 71.9959ZM16.2958 78.7779C16.5609 78.7415 16.8159 78.6517 17.0453 78.514C17.2554 78.3937 17.4358 78.2278 17.5731 78.0284C17.7095 77.824 17.8178 77.6021 17.895 77.3687C17.9791 77.1139 18.0322 76.8498 18.0533 76.5823C18.0533 76.3079 18.0903 76.0229 18.0903 75.7273C18.0885 75.4345 18.0709 75.1421 18.0375 74.8512C18.0006 74.5609 17.9689 74.2759 17.932 73.9962C17.895 73.7165 17.8528 73.4684 17.8053 73.2045L17.7578 72.872C17.7578 72.7929 17.7208 72.6609 17.6945 72.4868C17.6452 72.2229 17.603 71.9432 17.5678 71.6476C17.525 71.345 17.4633 71.0453 17.3831 70.7504C17.3039 70.4443 17.2142 70.1434 17.1245 69.8584C17.0313 69.5781 16.9036 69.3104 16.7445 69.0615C16.5969 68.8298 16.4195 68.6186 16.2167 68.4334C16.0208 68.2543 15.7831 68.1272 15.5253 68.064C15.2319 67.9901 14.9265 67.9776 14.6281 68.0271C14.3637 68.0672 14.1084 68.1529 13.8733 68.2804C13.6676 68.3953 13.4879 68.5517 13.3456 68.7395C13.2126 68.9299 13.1028 69.1354 13.0183 69.3518C12.9318 69.5865 12.8751 69.8312 12.8495 70.0801C12.8495 70.3334 12.8125 70.6079 12.8072 70.877C12.8027 71.1486 12.8168 71.4202 12.8495 71.6898C12.8846 71.9572 12.9163 72.2211 12.9445 72.4815C12.972 72.7262 13.0126 72.9694 13.0658 73.2098C13.0658 73.384 13.1133 73.5107 13.1239 73.5951C13.1345 73.6795 13.1239 73.7745 13.1767 73.9223C13.2295 74.0701 13.2506 74.3709 13.2822 74.6137C13.3135 74.8677 13.3594 75.1197 13.4195 75.3684C13.4775 75.627 13.5356 75.8962 13.5989 76.1337C13.6627 76.3858 13.7403 76.6342 13.8311 76.8779C13.9205 77.1068 14.0227 77.3306 14.1372 77.5482C14.239 77.7536 14.3667 77.9452 14.5172 78.1182C14.6565 78.2795 14.8182 78.4199 14.9975 78.5351C15.1751 78.6535 15.3741 78.7359 15.5833 78.7779C15.8192 78.8175 16.06 78.8175 16.2958 78.7779Z" fill="#EF233C"/>
<path d="M35.6389 79.3584L26.7247 80.757L26.1072 76.7987L27.8014 76.5348L26.2181 66.5071L24.5133 66.7762L23.9064 62.8918L35.1111 61.1448C35.9149 61.0118 36.7316 60.9746 37.5442 61.034C38.2267 61.0932 38.8915 61.2831 39.5022 61.5934C40.0993 61.9058 40.5966 62.3794 40.9378 62.9604C41.3441 63.6557 41.6062 64.4257 41.7083 65.2246C41.8022 65.7049 41.7958 66.1994 41.6896 66.6771C41.5833 67.1548 41.3795 67.6054 41.0908 68.0007C40.3946 68.8712 39.4505 69.5098 38.3833 69.8321C39.2638 69.8385 40.1275 70.0731 40.8903 70.5129C41.1544 70.6932 41.3771 70.9276 41.5436 71.2006C41.7102 71.4736 41.8167 71.7789 41.8561 72.0962L42.0145 73.1201C42.0388 73.2901 42.0831 73.4566 42.1464 73.6162C42.2098 73.7476 42.3062 73.8604 42.4261 73.9434C42.6007 74.0496 42.8024 74.1027 43.0067 74.0965C43.3409 74.1011 43.6749 74.0746 44.0042 74.0173L44.6217 77.9651L41.74 78.4137L41.0645 78.5193L40.3995 78.5932C40.1733 78.6172 39.946 78.6278 39.7186 78.6248C39.5444 78.6248 39.3386 78.5984 39.0958 78.572C38.891 78.5483 38.6904 78.4968 38.4995 78.419C38.316 78.3407 38.1394 78.2472 37.9717 78.1393C37.7968 78.0256 37.6462 77.8785 37.5283 77.7065C37.3978 77.5136 37.2898 77.3064 37.2064 77.089C37.1014 76.8257 37.027 76.5512 36.9847 76.2709L36.6522 74.1229C36.5999 73.765 36.5187 73.412 36.4095 73.0673C36.3198 72.7866 36.1842 72.5227 36.0083 72.2862C35.8341 72.048 35.582 71.8781 35.2958 71.8059C34.9306 71.7275 34.5528 71.7275 34.1875 71.8059L33.132 71.9748L33.7072 75.6693L35.0372 75.4634L35.6389 79.3584ZM33.3325 69.3307C33.6739 69.2798 34.0096 69.1968 34.3353 69.0826C34.628 68.9799 34.9037 68.834 35.1533 68.6498C35.3932 68.4716 35.5765 68.2278 35.6811 67.9479C35.7958 67.6339 35.825 67.2951 35.7656 66.9662C35.7369 66.7054 35.6529 66.4537 35.5191 66.2279C35.3853 66.0022 35.2048 65.8076 34.9897 65.6573C34.5093 65.3548 33.9289 65.2543 33.3747 65.3776L32.0447 65.5834L32.6464 69.4362L33.3325 69.3307Z" fill="#EF233C"/>
<path d="M53.0556 62.3269L51.4406 62.5803L53.0239 72.6081L54.5756 72.3653L55.1931 76.3183L45.6931 77.7961L45.0756 73.8483L46.6958 73.595L45.1125 63.5672L43.5292 63.81L42.9222 59.9256L52.4222 58.4425L53.0556 62.3269Z" fill="#EF233C"/>
<path d="M69.6964 72.9037C68.7781 74.0225 67.4058 74.7245 65.5692 75.0148C64.5533 75.1763 63.5207 75.2047 62.4975 75.0992C61.5424 74.9972 60.6092 74.7461 59.732 74.355C58.8861 73.9814 58.1085 73.4695 57.4308 72.8403C56.7263 72.175 56.1471 71.3884 55.7208 70.5181C55.2444 69.5502 54.922 68.5138 54.7656 67.4464C54.5569 66.2025 54.5569 64.9326 54.7656 63.6887C54.9566 62.5359 55.363 61.4293 55.9636 60.427C56.5824 59.419 57.4282 58.5695 58.4336 57.9464C59.5578 57.2451 60.8162 56.7867 62.1281 56.6006C63.4157 56.3411 64.7522 56.4924 65.9492 57.0334L66.3239 56.2734L69.7914 55.7456L70.9578 63.2084L67.7911 63.7045C67.6909 63.3256 67.5711 62.9521 67.4322 62.5856C67.3017 62.2582 67.1409 61.9437 66.952 61.6462C66.7812 61.3585 66.5573 61.106 66.2922 60.902C66.0171 60.7095 65.704 60.5782 65.3739 60.5167C64.9608 60.4367 64.5362 60.4367 64.1231 60.5167C63.6553 60.5801 63.205 60.7362 62.7983 60.9759C62.4463 61.1871 62.1524 61.4828 61.9433 61.8362C61.7437 62.1803 61.586 62.547 61.4736 62.9287C61.3627 63.3509 61.3042 63.7852 61.2995 64.2217C61.2894 64.6566 61.3017 65.0917 61.3364 65.5253C61.3628 65.9106 61.4156 66.3381 61.4895 66.8025C61.9961 70.0361 63.4035 71.4734 65.7117 71.1145C66.2397 71.0405 66.729 70.7958 67.105 70.4178C67.2835 70.2418 67.4159 70.0246 67.4905 69.7852C67.5651 69.5459 67.5795 69.2918 67.5325 69.0456C67.4938 68.7452 67.4176 68.4509 67.3056 68.1695L65.5428 68.4334L65.015 65.0873L71.8761 64.0317L73.3592 73.5317L70.3192 74.0067L69.6964 72.9037Z" fill="#EF233C"/>
<path d="M82.4633 57.73L80.8483 57.9834L82.4317 68.0111L83.9833 67.7684L84.6008 71.7161L75.1008 73.1992L74.4833 69.2461L76.0983 68.9981L74.515 58.9703L72.9317 59.2184L72.3247 55.3339L81.8247 53.8456L82.4633 57.73Z" fill="#EF233C"/>
<path d="M103.052 54.5C102.813 54.4936 102.576 54.5441 102.361 54.6475C102.145 54.7508 101.958 54.904 101.813 55.0944C101.669 55.2847 101.572 55.5068 101.53 55.7421C101.489 55.9774 101.504 56.2192 101.574 56.4475L103.495 68.75L96.8242 69.8056L90.0581 60.6275L90.7495 65.0397C90.761 65.271 90.8204 65.4974 90.924 65.7046C91.0276 65.9117 91.173 66.0951 91.3511 66.2431C91.7812 66.4628 92.2769 66.5173 92.7445 66.3961L93.362 70.3492L86.3478 71.4417L85.7356 67.4886C86.0253 67.4494 86.3069 67.3639 86.5695 67.2353C86.7526 67.1454 86.9159 67.0198 87.0497 66.8658C87.1647 66.7122 87.2342 66.5293 87.2503 66.3381C87.2816 66.148 87.2904 65.9549 87.2767 65.7628C87.2619 65.5399 87.2355 65.3179 87.1975 65.0978L85.9572 57.1811L84.2314 57.4503L83.6297 53.587L91.7153 52.3256L98.8509 62.2108L98.0434 57.0492C98.017 56.875 97.9958 56.7431 97.9747 56.6586C97.9502 56.5315 97.9167 56.4063 97.8745 56.2839C97.8366 56.1464 97.7639 56.0209 97.6633 55.9197C97.5609 55.8295 97.4495 55.7499 97.3309 55.6822C97.169 55.5947 96.987 55.5511 96.8031 55.5556C96.5496 55.5542 96.2967 55.579 96.0483 55.6295L95.4414 51.745L102.45 50.6895L103.052 54.5Z" fill="#EF233C"/>
<path d="M120.859 61.0129C120.954 61.2345 121.028 61.3982 121.086 61.509C121.146 61.6173 121.224 61.7139 121.318 61.794C121.359 61.8315 121.408 61.8594 121.461 61.8759C121.514 61.8923 121.57 61.8968 121.624 61.889L122.574 61.7412L123.192 65.689L114.098 67.1087L113.47 63.1609L114.806 62.9445C114.616 61.7412 114.278 61.1765 113.787 61.2557L110.757 61.7254C110.713 61.7301 110.671 61.7468 110.636 61.7738C110.6 61.8008 110.573 61.837 110.557 61.8784C110.517 61.9547 110.499 62.0405 110.504 62.1265C110.504 62.2057 110.504 62.327 110.541 62.4801C110.583 62.7187 110.659 62.9498 110.768 63.1662C110.889 63.4195 111.032 63.5304 111.185 63.5093L112.109 63.3615L112.694 67.3251L105.232 68.4915L104.635 64.5279C104.925 64.4895 105.209 64.415 105.48 64.3062C105.743 64.202 105.977 64.035 106.161 63.8198C106.345 63.6045 106.473 63.3475 106.535 63.0712C106.629 62.5811 106.695 62.0859 106.731 61.5881L107.459 53.8193L105.126 54.1834L104.519 50.299L115.455 48.589L120.859 61.0129ZM113.138 58.5429L110.974 53.1543L110.615 58.9598L113.138 58.5429Z" fill="#EF233C"/>
<path d="M131.167 60.4007L133.278 60.0682L133.631 56.0676L136.798 55.5768L138.017 63.3826L123.968 65.5834L123.34 61.6357L124.923 61.3876L123.34 51.3598L121.725 51.6132L121.139 47.7287L130.692 46.2351L131.293 50.109L129.599 50.3729L131.167 60.4007Z" fill="#EF233C"/>
<path d="M42.4103 37.4054C41.5684 37.1633 40.8196 36.672 40.2622 35.9962L38.035 33.6107C37.3859 33.0032 36.9477 32.2045 36.7842 31.3307C36.705 30.6182 37.0481 29.9109 37.8081 29.2196C38.5681 28.5282 39.2331 28.2221 39.877 28.2907C40.6279 28.4175 41.3071 28.8133 41.7875 29.4043L42.1728 29.8159L40.7689 31.1301L40.2992 30.6023C40.0813 30.3443 39.8139 30.1325 39.5128 29.9796C39.3806 29.9615 39.246 29.9741 39.1194 30.0164C38.9928 30.0587 38.8776 30.1295 38.7828 30.2233C38.6879 30.3172 38.6159 30.4316 38.5722 30.5577C38.5286 30.6838 38.5145 30.8183 38.5311 30.9507C38.6751 31.2715 38.8794 31.5618 39.1328 31.8057L42.0936 34.9723C42.3266 35.2472 42.619 35.4655 42.9486 35.6109C43.0868 35.653 43.2342 35.6539 43.3729 35.6136C43.5116 35.5733 43.6356 35.4935 43.7297 35.384C43.8437 35.2926 43.9291 35.1704 43.9759 35.032C44.0226 34.8936 44.0288 34.7447 43.9936 34.6029C43.8756 34.2465 43.6728 33.9241 43.4025 33.6634L42.6953 32.9087L42.0039 33.5579L41.1806 32.6765L43.1861 30.8029L46.6008 34.4604L45.6667 35.3682L44.9753 34.8404C45.1032 35.1566 45.1256 35.5058 45.039 35.8358C44.9525 36.1658 44.7617 36.459 44.495 36.6718C44.2379 36.9604 43.9118 37.179 43.5472 37.3073C43.1826 37.4356 42.7915 37.4694 42.4103 37.4054Z" fill="#EF233C"/>
<path d="M48.1367 33.0933C47.6653 33.1161 47.2012 32.9702 46.8278 32.6817C46.3578 32.3028 45.9546 31.8479 45.635 31.3358L41.9722 25.7678L43.5978 24.7122L47.4189 30.5178C47.6086 30.8382 47.8597 31.118 48.1578 31.3411C48.2843 31.4024 48.4245 31.4298 48.5647 31.4207C48.705 31.4116 48.8405 31.3663 48.958 31.2892C49.0755 31.2121 49.171 31.1058 49.2352 30.9808C49.2993 30.8558 49.33 30.7162 49.3242 30.5758C49.2376 30.2133 49.0817 29.871 48.865 29.5678L45.0439 23.7622L46.68 22.7067L50.3744 28.2747C50.721 28.7693 50.9815 29.3189 51.145 29.9003C51.2633 30.3582 51.2127 30.8435 51.0025 31.2672C50.689 31.7624 50.2736 32.1851 49.784 32.5073C49.2944 32.8294 48.7419 33.0436 48.1631 33.1355L48.1367 33.0933Z" fill="#EF233C"/>
<path d="M50.2108 20.8964L52.2217 19.9991L57.9006 28.1111L56.2222 28.8764L55.0295 27.0555L53.6256 27.6836L54.1533 29.7947L52.4486 30.5547L50.2108 20.8964ZM54.3539 26.0264L52.2428 22.6855L53.2983 26.5014L54.3539 26.0264Z" fill="#EF233C"/>
<path d="M56.0533 18.5108L58.4969 17.8722C59.2864 17.6085 60.1382 17.5956 60.9353 17.8353C61.5475 18.0728 61.9908 18.6533 62.2072 19.5664C62.3561 20.0693 62.401 20.5973 62.3392 21.1181C62.2567 21.5559 62.0116 21.9462 61.6531 22.2106L64.1389 26.4697L62.1703 26.9975L59.9853 23.0022L59.2886 23.187L60.3969 27.462L58.4917 27.9581L56.0533 18.5108ZM59.5789 21.8833C59.757 21.8562 59.9269 21.7901 60.0765 21.6898C60.2261 21.5894 60.3518 21.4573 60.4444 21.3028C60.57 20.944 60.57 20.5532 60.4444 20.1945C60.3727 19.8272 60.1882 19.4914 59.9167 19.2339C59.7734 19.1435 59.611 19.0878 59.4424 19.0713C59.2738 19.0548 59.1036 19.078 58.9456 19.1389L58.2806 19.3131L58.9931 22.0364L59.5789 21.8833Z" fill="#EF233C"/>
<path d="M65.4847 16.5423L67.6803 16.3364L70.4406 25.8681L68.6197 26.037L68.0656 23.9259L66.5297 24.0684L66.3556 26.2375L64.5031 26.4064L65.4847 16.5423ZM67.7594 22.7331L66.8147 18.8803L66.5983 22.8387L67.7594 22.7331Z" fill="#EF233C"/>
<path d="M71.7547 16.1675L73.1375 16.2625L74.9531 21.4664L75.2961 16.4103L76.9428 16.5264L76.2778 26.248L74.9425 26.1583L73.1533 20.6325L72.7839 26L71.0897 25.8839L71.7547 16.1675Z" fill="#EF233C"/>
<path d="M80.062 18.5689L78.5895 18.247L78.9008 16.8114L83.767 17.867L83.4556 19.2972L82.0095 18.9806L80.2467 27.0714L78.2939 26.6439L80.062 18.5689Z" fill="#EF233C"/>
<path d="M85.5456 18.4264L89.5408 19.8567L89.0764 21.1497L86.9389 20.3792L86.0628 22.8333L87.72 23.4244L87.2503 24.7281L85.5984 24.1317L84.5428 27.0081L86.7067 27.7839L86.2528 29.0558L82.2522 27.5833L85.5456 18.4264Z" fill="#EF233C"/>
<path d="M91.3722 20.6801L95.1511 22.617L94.5283 23.8362L92.5017 22.7806L91.3247 25.0817L92.9081 25.8839L92.28 27.1137L90.6967 26.3114L89.3033 29.0348L91.3458 30.0903L90.7336 31.2778L86.9336 29.3356L91.3722 20.6801Z" fill="#EF233C"/>
<path d="M49.0022 105.594C48.933 104.721 49.1299 103.847 49.567 103.087L51.0131 100.169C51.3522 99.3465 51.946 98.6547 52.7072 98.1948C53.3458 97.8676 54.1375 97.9415 55.0717 98.4007C56.0058 98.8598 56.4967 99.3823 56.655 99.984C56.7993 100.731 56.67 101.504 56.2908 102.164L56.0375 102.691L54.3117 101.836L54.6178 101.224C54.7845 100.93 54.8887 100.605 54.9239 100.269C54.9239 100.031 54.7708 99.8362 54.4542 99.6779C54.3392 99.5965 54.2018 99.5529 54.061 99.5529C53.9201 99.5529 53.7828 99.5965 53.6678 99.6779C53.4129 99.9266 53.2086 100.222 53.0661 100.549L51.145 104.428C50.9625 104.751 50.8611 105.113 50.8495 105.483C50.859 105.627 50.9099 105.765 50.9961 105.88C51.0823 105.995 51.2 106.083 51.335 106.133C51.4577 106.212 51.6007 106.254 51.7467 106.254C51.8927 106.254 52.0356 106.212 52.1583 106.133C52.4509 105.896 52.681 105.592 52.8286 105.246L53.2878 104.322L52.4381 103.9L52.9658 102.845L55.4253 104.058L53.2033 108.545L52.037 107.969L52.3061 107.135C52.046 107.354 51.7235 107.486 51.3844 107.512C51.0453 107.537 50.7067 107.455 50.4167 107.278C50.0591 107.138 49.7424 106.91 49.4953 106.616C49.2483 106.322 49.0788 105.971 49.0022 105.594Z" fill="#EF233C"/>
<path d="M56.4544 109.415C56.1335 109.069 55.9464 108.62 55.9267 108.149C55.911 107.545 56.0003 106.943 56.1906 106.37L58.0906 99.9786L59.9589 100.538L57.9797 107.188C57.8591 107.541 57.8071 107.914 57.8267 108.286C57.8475 108.429 57.9127 108.562 58.013 108.666C58.1134 108.77 58.2439 108.84 58.3861 108.866C58.5191 108.922 58.6664 108.935 58.8068 108.901C58.9472 108.868 59.0734 108.791 59.1672 108.682C59.3885 108.383 59.5498 108.044 59.6422 107.684L61.6214 101.029L63.5003 101.588L61.6003 107.98C61.4441 108.562 61.1907 109.113 60.8508 109.611C60.5759 109.996 60.1712 110.27 59.7108 110.381C59.1307 110.494 58.5309 110.448 57.9745 110.249C57.4039 110.108 56.8799 109.821 56.4544 109.415Z" fill="#EF233C"/>
<path d="M65.5375 101.868L67.7225 102.142L68.3611 112.028L66.5456 111.801L66.4558 109.632L64.9253 109.442L64.2919 111.521L62.4395 111.289L65.5375 101.868ZM66.4294 108.407L66.3345 104.444L65.2789 108.265L66.4294 108.407Z" fill="#EF233C"/>
<path d="M69.9022 102.369L72.4303 102.259C73.257 102.169 74.0915 102.334 74.8211 102.734C75.1153 102.965 75.3487 103.265 75.5013 103.607C75.6539 103.949 75.7211 104.323 75.6972 104.697C75.7421 105.219 75.6755 105.744 75.5019 106.238C75.3301 106.65 75.0072 106.98 74.5994 107.162L76.1511 111.854L74.1192 111.943L72.8261 107.579L72.103 107.61L72.293 112.023L70.3244 112.107L69.9022 102.369ZM72.6414 106.407C72.8209 106.418 73.0006 106.39 73.1676 106.323C73.3347 106.256 73.4848 106.153 73.6072 106.022C73.8077 105.697 73.8915 105.313 73.8447 104.934C73.8582 104.56 73.7529 104.19 73.5439 103.879C73.4242 103.759 73.2773 103.669 73.1156 103.617C72.9539 103.566 72.7822 103.554 72.615 103.583L71.9342 103.615L72.0555 106.428L72.6414 106.407Z" fill="#EF233C"/>
<path d="M77.6289 101.715L79.7822 101.261L83.6244 110.413L81.83 110.787L81.0383 108.766L79.5342 109.083L79.6081 111.257L77.782 111.643L77.6289 101.715ZM80.6003 107.605L79.2122 103.911L79.455 107.869L80.6003 107.605Z" fill="#EF233C"/>
<path d="M81.9303 100.754L83.2181 100.253L87.0656 104.201L85.25 99.4773L86.7858 98.8809L90.3009 107.969L89.0553 108.449L85.0917 104.227L87.0339 109.252L85.4506 109.864L81.9303 100.754Z" fill="#EF233C"/>
<path d="M89.0606 99.2819L87.7569 100.026L87.0286 98.7542L91.3564 96.2894L92.0847 97.5614L90.7969 98.3055L94.8925 105.499L93.1667 106.476L89.0606 99.2819Z" fill="#EF233C"/>
<path d="M91.6309 96.0626L95.0139 93.4976L95.8425 94.5901L94.0323 95.9623L95.6156 98.0259L97.0142 96.9703L97.8481 98.0734L96.4495 99.1289L98.2967 101.562L100.128 100.174L100.941 101.229L97.5367 103.81L91.6309 96.0626Z" fill="#EF233C"/>
<path d="M95.3833 93.1387L98.4075 90.1567L99.3681 91.1331L97.7531 92.7165L99.5686 94.5584L100.819 93.3234L101.791 94.3104L100.556 95.5559L102.704 97.7356L104.334 96.1206L105.284 97.0759L102.244 100.079L95.3833 93.1387Z" fill="#EF233C"/>
</svg>
