<svg width="146" height="96" viewBox="0 0 146 96" fill="none" xmlns="http://www.w3.org/2000/svg">
<path d="M57.1449 72.9099C57.1365 72.6241 56.6889 72.6157 56.6942 72.9099C56.7115 73.5658 56.5905 74.2181 56.3393 74.8243C56.3065 74.7926 56.2667 74.7692 56.2231 74.7559C56.1795 74.7427 56.1333 74.7401 56.0885 74.7483C55.3141 74.9939 54.6397 75.483 54.1657 76.1429C53.8639 76.5675 53.457 76.9065 52.9849 77.1266C52.5127 77.3467 51.9915 77.4404 51.4722 77.3984C50.4568 77.3111 49.4343 77.4318 48.4672 77.7533C47.5408 78.1691 46.7785 78.983 45.7563 79.1479C44.6163 79.3379 43.4702 78.8189 42.3188 79.0005C41.273 79.259 40.2895 79.7242 39.4262 80.3685C37.8226 81.3565 37.467 81.0913 35.7281 80.8534C32.8059 80.443 32.3134 82.6835 29.6055 82.4555C28.6008 82.3795 27.4486 82.2275 26.6955 83.0353C25.8473 82.1955 25.883 79.7521 25.8466 78.9215C25.8382 78.7831 25.6125 78.7398 25.5958 78.8873C25.2576 81.1559 25.7166 83.8584 28.2193 84.6116C30.4294 85.2819 33.9869 84.5219 36.3779 84.0142C40.776 83.0893 48.6899 80.9233 52.6069 78.9982C54.9622 77.8468 57.227 75.7591 57.1449 72.9099ZM42.3614 68.2853C41.7824 68.9318 41.372 69.7114 41.1666 70.5546C42.0156 70.8054 42.8812 71.1178 43.756 71.3686C44.0614 69.9652 44.8303 68.7054 45.9387 67.792H45.9296C45.296 67.6002 44.6924 67.3203 44.1367 66.9606C43.4639 67.2816 42.8607 67.7317 42.3614 68.2853Z" fill="#191919"/>
<path d="M27.3711 78.9548C29.3585 79.4146 30.953 78.4692 34.4551 78.375C36.9836 78.3225 39.5213 78.6174 42.0498 78.375C44.5783 78.1325 46.9693 77.2228 49.3595 76.4605C51.3423 75.829 53.5334 75.3091 55.1879 73.9753C57.3805 72.2114 57.2103 69.8774 55.5428 69.16C54.0988 68.552 52.1806 69.084 49.9051 69.2208C49.2819 68.2419 47.4785 68.1256 46.5102 67.9288C46.4103 67.9881 46.3148 68.0547 46.2245 68.1279C45.1895 68.9932 44.4482 70.158 44.1025 71.462C45.5631 71.9583 47.1527 71.9184 48.5865 71.3495C49.2356 71.0554 50.1103 70.3448 50.0495 69.6175C51.4705 69.3987 52.9075 69.3003 54.3451 69.3234C56.8941 69.5179 56.9899 71.845 54.9949 73.5581C53.4969 74.8311 51.4525 75.3251 49.6255 75.905C47.484 76.6914 45.2884 77.3221 43.056 77.792C40.785 78.0477 38.4951 78.0912 36.216 77.922C34.0545 77.8261 31.89 78.0242 29.7819 78.511C26.8087 78.9852 25.4955 77.8012 25.2089 75.965C25.1139 75.0407 25.1139 74.1092 25.2089 73.1849C25.2697 72.1893 25.5988 70.9505 26.8893 71.3921C27.9199 71.747 28.4648 72.8361 29.4786 73.2541C29.8865 73.4209 30.3286 73.4867 30.7674 73.446C31.2062 73.4052 31.6286 73.2591 31.9988 73.02C32.69 72.4401 33.2657 71.7352 33.6959 70.9422C34.2331 70.168 35.0133 69.5951 35.9128 69.3142C36.4535 69.7341 37.1297 69.9405 37.8128 69.8941C38.0139 68.7706 38.5118 67.7214 39.2547 66.8549C39.9977 65.9885 40.9587 65.3365 42.0384 64.9663C41.4658 64.1708 40.6165 63.6181 39.6573 63.4166C39.0517 63.3528 38.4398 63.4412 37.8772 63.6741C37.3146 63.9069 36.819 64.2766 36.4357 64.7497C36.0038 65.2997 35.7286 65.9561 35.6392 66.6497C35.6004 66.6836 35.5737 66.7292 35.5632 66.7796C35.3426 67.5152 35.3823 68.3043 35.6757 69.014C33.6009 69.6334 33.2999 71.0942 32.3066 72.1924C31.9009 72.6614 31.3257 72.9504 30.7071 72.9959C30.0886 73.0413 29.4773 72.8395 29.0074 72.4348C28.2543 71.8268 27.6478 71.006 26.6347 70.8586C26.3283 70.7906 26.0078 70.8301 25.727 70.9704C25.4462 71.1107 25.2223 71.3433 25.0927 71.6292C25.0346 71.5191 24.9516 71.4241 24.8502 71.3518C24.0902 70.7734 22.9761 71.8557 23.4305 72.8672C23.5544 73.1084 23.7374 73.3142 23.9625 73.4654C24.257 73.707 24.5011 74.0042 24.6807 74.3401C24.576 75.4309 24.7801 76.5291 25.2697 77.5093C25.5069 77.8774 25.8148 78.1946 26.1755 78.4428C26.5362 78.6909 26.9426 78.865 27.3711 78.9548ZM24.1031 72.9014C24.0161 72.8093 23.9487 72.7004 23.9052 72.5814C23.8617 72.4623 23.8429 72.3356 23.8501 72.2091C23.8666 72.0907 23.9193 71.9803 24.0009 71.893C24.0825 71.8057 24.1891 71.7457 24.3061 71.7212C24.7286 71.6862 24.7575 72.2615 24.7963 72.4948C24.7405 72.7891 24.7059 73.0871 24.6929 73.3863C24.5044 73.213 24.2711 73.0565 24.1062 72.9014H24.1031Z" fill="#191919"/>
<path d="M38.1966 69.9481C39.0562 70.0498 39.9072 70.2149 40.7426 70.4421C40.9399 69.5745 41.3473 68.7686 41.9289 68.0953C42.4294 67.5155 43.0309 67.0314 43.7043 66.6665C43.2191 66.2958 42.7799 65.8685 42.3963 65.3935C41.3518 65.7056 40.4106 66.2932 39.6716 67.0947C38.9326 67.8961 38.4231 68.8818 38.1966 69.9481ZM98.764 65.7917C98.6964 65.5052 98.2616 65.6268 98.3316 65.9125C98.4811 66.5495 98.4928 67.211 98.3658 67.8528C98.3235 67.8307 98.277 67.8177 98.2293 67.8147C98.1816 67.8116 98.1339 67.8187 98.0891 67.8353C97.3645 68.2503 96.7933 68.8882 96.4604 69.654C96.2446 70.1223 95.9108 70.5265 95.4918 70.8271C95.0729 71.1276 94.583 71.3142 94.0702 71.3686C93.0681 71.4848 92.1013 71.8088 91.2316 72.3201C90.3652 72.9517 89.7595 73.9564 88.6856 74.2771C87.5943 74.6062 86.4163 74.3637 85.3416 74.8137C84.3991 75.2952 83.5559 75.9504 82.8564 76.7448C81.6123 77.9395 81.0689 77.8088 79.4874 77.897C77.3107 78.0231 76.5636 79.3098 75.4951 80.0622C74.9578 80.4387 74.3302 80.6658 73.6764 80.7204C72.6808 80.8329 71.5545 80.9484 70.983 81.8718C70.9655 81.8634 70.9571 81.8459 70.9396 81.8376C69.8756 80.8329 69.6583 79.3516 69.3201 78.0095C69.3109 77.9806 69.2918 77.9558 69.2662 77.9397C69.2405 77.9235 69.21 77.9169 69.1799 77.9211C69.1499 77.9253 69.1223 77.94 69.1021 77.9625C69.0818 77.9851 69.0702 78.0141 69.0693 78.0444C69.1992 80.3822 70.2382 82.9282 72.8799 83.1281C75.1356 83.3013 78.3443 81.8999 80.6319 80.902C84.6888 79.1404 91.997 75.4597 95.5021 72.7442C97.6058 71.0912 99.4298 68.5961 98.764 65.7917ZM79.612 66.7098C80.4761 66.6372 81.3443 66.6283 82.2097 66.6832C82.2311 65.7712 82.4781 64.8787 82.9286 64.0855C83.302 63.4454 83.7789 62.8717 84.34 62.3877C83.7891 62.1201 83.2718 61.7885 82.7987 61.3997C81.842 61.9198 81.0419 62.6866 80.4815 63.6204C79.9212 64.5541 79.6209 65.6208 79.612 66.7098Z" fill="#191919"/>
<path d="M71.3387 77.6902C73.2539 77.5298 74.2213 76.4605 78.016 75.629C80.3978 75.1183 82.8397 74.8842 85.1691 74.1569C87.4489 73.3087 89.6344 72.2263 91.6907 70.9269C93.5785 69.8629 95.7521 68.8833 97.1292 67.1421C98.8377 64.9761 98.1682 62.8382 96.5213 62.4575C95.3957 62.1884 94.1744 62.6216 93.118 62.9598C90.632 63.7586 90.99 63.653 90.9011 63.6089C90.157 62.8648 88.1954 63.0822 87.3154 63.0723C86.337 64.1649 85.7625 65.5596 85.6874 67.0243C87.1604 67.2009 88.6498 66.8744 89.9138 66.0979C90.5112 65.6905 91.4118 64.7983 91.1519 64.0193C92.4165 63.6469 93.6462 63.1612 94.945 62.9104C97.7319 62.3784 98.3939 64.6045 96.9111 66.6952C95.7331 68.3315 93.7761 69.2496 92.0616 70.211C90.114 71.4193 88.0821 72.4861 85.9816 73.403C83.0609 74.521 79.7868 74.6722 76.6465 75.49C74.0131 76.1968 72.446 77.396 70.584 77.2379C70.069 77.1983 69.5747 77.0183 69.1548 76.7175C68.7349 76.4167 68.4054 76.0066 68.2021 75.5318C67.8729 74.6935 67.6631 73.8132 67.5789 72.9166C67.449 72.016 67.1549 70.4398 68.5054 70.3873C69.6142 70.344 70.4191 71.3229 71.4329 71.6345C71.8532 71.7585 72.297 71.7808 72.7277 71.6995C73.1583 71.6183 73.5635 71.4358 73.9097 71.1671C75.4122 69.9617 74.8719 67.8231 77.2264 66.5599C77.8306 66.8601 78.524 66.928 79.175 66.7507H79.2008C79.1706 65.7492 79.3804 64.7549 79.8128 63.851C80.2451 62.9471 80.8874 62.1597 81.6861 61.5546C81.8859 61.398 82.1109 61.2339 82.3442 61.0781C81.6584 60.4432 80.7698 60.0718 79.8362 60.03C79.2311 60.0658 78.6447 60.2526 78.1304 60.5733C77.6161 60.8941 77.1903 61.3386 76.892 61.8662C76.2505 63.0024 76.1175 65.4139 76.9353 66.3175C74.8757 67.4134 75.0474 69.0535 74.1233 70.3531C73.2918 71.5136 71.9238 71.5045 70.7975 70.838C70.0102 70.382 69.2129 69.7991 68.2515 69.9632C67.9798 70.0071 67.7265 70.1285 67.5222 70.313C67.318 70.4974 67.1714 70.737 67.1001 71.0029C67.0095 70.8966 66.8941 70.8143 66.7641 70.7633C66.6341 70.7122 66.4935 70.694 66.3548 70.7102C66.2161 70.7265 66.0835 70.7767 65.9688 70.8563C65.8541 70.936 65.7608 71.0427 65.6972 71.1671C65.5682 71.3726 65.5013 71.611 65.5044 71.8536C65.5075 72.0963 65.5805 72.3329 65.7147 72.5351C65.8903 72.7567 66.1197 72.9297 66.3812 73.0374C66.704 73.1923 66.986 73.4209 67.2043 73.7047C67.3563 73.8567 67.4535 75.8578 68.7022 76.9347C69.0688 77.2306 69.491 77.4499 69.9439 77.5796C70.3967 77.7094 70.871 77.747 71.3387 77.6902ZM66.388 72.434C66.0772 72.2333 65.8431 71.6284 66.2239 71.3426C66.6396 71.031 66.8645 71.4376 67.0029 71.8708C67.0116 72.1838 67.0369 72.4961 67.0789 72.8064C66.8531 72.6673 66.5849 72.5624 66.388 72.434Z" fill="#191919"/>
<path d="M82.6406 66.7181C83.5237 66.7941 84.4334 66.9347 85.3424 67.0038C85.358 65.5657 85.8552 64.1743 86.7545 63.0519C86.0921 62.9924 85.4416 62.8388 84.8226 62.5959C84.1742 63.0765 83.6417 63.6962 83.2641 64.4095C82.8866 65.1229 82.6735 65.9117 82.6406 66.7181ZM32.3848 15.0161C32.1424 14.9993 31.4067 15.3451 31.3284 15.0069C31.2676 14.747 30.8785 14.8595 30.9302 15.1194C30.9675 15.2529 31.0481 15.3702 31.1595 15.4528C31.2708 15.5353 31.4065 15.5785 31.545 15.5754C31.738 15.5653 31.9281 15.5245 32.1082 15.4546C32.2389 15.4207 32.3757 15.4179 32.5077 15.4464C32.6397 15.4749 32.7631 15.534 32.8682 15.6187C32.8972 15.6353 32.9308 15.642 32.9639 15.6376C32.997 15.6332 33.0277 15.618 33.0513 15.5944C33.0749 15.5708 33.0901 15.54 33.0945 15.5069C33.0989 15.4738 33.0923 15.4402 33.0757 15.4113C33.0011 15.2944 32.8992 15.1975 32.7789 15.1286C32.6586 15.0598 32.5234 15.0212 32.3848 15.0161ZM34.1952 17.3371C34.0526 17.4444 33.8863 17.5159 33.7103 17.5453C33.6621 17.5579 33.6209 17.5892 33.5957 17.6321C33.5706 17.6751 33.5635 17.7263 33.5761 17.7745C33.5887 17.8226 33.62 17.8638 33.6629 17.889C33.7059 17.9142 33.7571 17.9212 33.8053 17.9086C34.1693 17.8136 34.8358 17.5195 34.775 17.0513C34.6772 16.7537 34.5499 16.4665 34.395 16.1941C34.3261 15.8645 34.2334 15.5404 34.1176 15.2243C34.1043 15.2016 34.0846 15.1834 34.0609 15.172C34.0372 15.1606 34.0107 15.1565 33.9847 15.1603C33.9586 15.164 33.9343 15.1754 33.9148 15.1931C33.8953 15.2107 33.8815 15.2337 33.8752 15.2593C33.844 15.8514 33.9824 16.4401 34.2742 16.9563C34.3426 17.138 34.376 17.1805 34.1952 17.3371ZM32.0558 17.7361C32.0355 17.7042 32.0056 17.6795 31.9704 17.6657C31.9352 17.6518 31.8965 17.6495 31.8599 17.659C31.8233 17.6686 31.7907 17.6895 31.7667 17.7188C31.7428 17.7481 31.7288 17.7842 31.7267 17.822C31.6575 18.5584 31.2768 20.1521 32.264 20.4721C33.176 20.767 33.7536 19.4841 33.8836 18.81C33.8847 18.7423 33.8618 18.6763 33.819 18.6239C33.7761 18.5714 33.7161 18.5358 33.6495 18.5235C33.3404 18.5281 33.0347 18.4591 32.7576 18.3222C32.4804 18.1853 32.2399 17.9844 32.0558 17.7361ZM33.5112 18.7925C33.4066 19.2182 33.188 19.6073 32.8788 19.9181C32.8158 19.9677 32.742 20.0019 32.6634 20.0179C32.5848 20.0339 32.5035 20.0313 32.4261 20.0103C32.3486 19.9892 32.2772 19.9503 32.2175 19.8967C32.1579 19.843 32.1116 19.7762 32.0824 19.7015C31.9848 19.2189 31.9789 18.7224 32.0649 18.2377C32.2564 18.4225 32.4832 18.5668 32.7316 18.6621C32.9801 18.7574 33.2452 18.8018 33.5112 18.7925ZM54.5122 29.8361C54.2725 30.4539 54.1737 31.1174 54.2231 31.7782C54.2726 32.4391 54.469 33.0806 54.798 33.6558C54.8172 33.6857 54.8463 33.7079 54.8801 33.7186C54.914 33.7292 54.9506 33.7277 54.9834 33.7143C55.0163 33.7008 55.0434 33.6763 55.0601 33.6449C55.0767 33.6135 55.0819 33.5773 55.0746 33.5426C54.8003 32.2605 54.399 32.0553 54.8238 29.9318C54.8365 29.8905 54.8323 29.8458 54.8121 29.8076C54.7918 29.7694 54.7572 29.7408 54.7159 29.7281C54.6746 29.7154 54.6299 29.7197 54.5917 29.7399C54.5535 29.7601 54.5249 29.7947 54.5122 29.8361ZM34.0736 69.0391C32.1173 68.7192 29.3046 69.2603 27.4144 69.8706C26.7304 61.4536 26.4135 52.8633 28.445 44.669C28.7049 43.6301 29.0424 42.5995 29.2764 41.553C29.3106 41.3881 29.0682 41.2589 28.9907 41.4314C27.7602 44.178 26.9653 49.2525 26.6696 52.2568C26.2035 58.2231 26.3107 64.2204 26.9896 70.1662C27.0071 70.2962 27.1287 70.4345 27.2754 70.3828C30.3496 69.2763 32.3316 69.4936 34.0219 69.4039C34.2301 69.394 34.2985 69.0756 34.0736 69.0391ZM17.8012 57.5639C17.1438 57.3123 16.8314 56.7499 16.3572 56.2719C16.3224 56.2379 16.2766 56.2174 16.228 56.2144C16.1795 56.2113 16.1314 56.2258 16.0927 56.2551C16.0539 56.2845 16.027 56.3269 16.0168 56.3744C16.0066 56.422 16.0139 56.4717 16.0372 56.5143C16.226 56.9017 16.4976 57.2428 16.8327 57.5136C17.1679 57.7844 17.5584 57.9783 17.9768 58.0815C18.2954 58.159 18.6304 58.1338 18.9337 58.0093C19.2371 57.8848 19.4933 57.6674 19.6655 57.3883C20.7168 57.8351 21.7924 58.2226 22.8871 58.5489C23.3287 58.6879 23.9002 58.8696 24.2551 58.4538C24.3131 58.3821 24.3554 58.299 24.3795 58.21C24.4037 58.121 24.409 58.0279 24.3952 57.9367C24.3814 57.8455 24.3488 57.7582 24.2994 57.6802C24.25 57.6023 24.185 57.5355 24.1084 57.4841C23.3028 56.7674 22.6371 56.851 19.1456 53.5868C19.1348 53.576 19.122 53.5675 19.1078 53.5617C19.0937 53.5559 19.0786 53.5529 19.0633 53.5529C19.048 53.553 19.0329 53.556 19.0188 53.5619C19.0047 53.5678 18.9919 53.5764 18.9811 53.5872C18.9703 53.598 18.9618 53.6109 18.956 53.625C18.9501 53.6391 18.9472 53.6543 18.9472 53.6695C18.9472 53.6848 18.9503 53.6999 18.9562 53.714C18.962 53.7281 18.9706 53.741 18.9815 53.7517C20.1789 55.1755 21.5888 56.4059 23.1615 57.3997C23.2314 57.4476 23.4837 57.5692 23.6722 57.6901C23.7037 57.7103 23.7306 57.7367 23.7514 57.7678C23.7722 57.7989 23.7863 57.8339 23.793 57.8707C23.7996 57.9075 23.7986 57.9453 23.7899 57.9817C23.7813 58.0181 23.7653 58.0523 23.7429 58.0822C23.5149 58.3794 23.2018 58.1962 22.9069 58.1187C19.0712 56.9278 18.8789 56.4155 17.7108 55.7019C17.5375 55.5985 17.3817 55.8319 17.5033 55.9709C18.0219 56.5207 18.6462 56.9602 19.3387 57.2629C19.1391 57.4567 18.8876 57.5883 18.6146 57.6418C18.3417 57.6952 18.0591 57.6681 17.8012 57.5639Z" fill="#191919"/>
<path d="M42.7087 36.9869C41.8324 32.4094 39.582 31.388 35.1391 31.904C30.1892 32.4771 25.497 34.8886 21.6354 38.1756C21.1607 38.1923 20.6887 38.2557 20.2264 38.3648C17.6066 38.9188 14.2984 40.1888 12.5101 42.1648C12.2502 41.4798 11.9816 40.8044 11.7045 40.1386C13.6417 38.3329 14.2809 38.5791 15.0994 37.8776C15.1213 37.8549 15.1362 37.8262 15.1421 37.7952C15.1481 37.7642 15.145 37.7321 15.1331 37.7028C15.1212 37.6735 15.101 37.6483 15.0751 37.6302C15.0491 37.6122 15.0185 37.602 14.9869 37.601C14.2845 37.7535 13.6266 38.0655 13.0641 38.513C12.5142 38.8687 12.0008 39.2778 11.5312 39.7343C10.8989 38.2356 10.2149 36.7632 9.47921 35.3172C9.34849 35.0664 8.97685 35.2914 9.09921 35.5452C11.0703 39.4162 12.6569 43.4712 13.8363 47.652C13.9714 48.0046 14.0702 48.37 14.1312 48.7426C14.1654 49.3324 13.6113 49.549 13.2131 49.8514C12.1166 50.7012 11.1483 51.7046 10.338 52.8306C7.61417 49.8241 4.30893 45.5027 2.59361 41.8198C1.55347 39.7673 1.13508 37.4558 1.38977 35.169C2.12013 30.4312 6.95373 28.253 11.2371 25.593C11.2722 25.5698 11.2972 25.5341 11.3068 25.4932C11.3165 25.4522 11.3101 25.4091 11.289 25.3727C11.268 25.3363 11.2338 25.3093 11.1935 25.2973C11.1531 25.2853 11.1098 25.2891 11.0722 25.308C8.843 26.3796 6.73041 27.6785 4.76797 29.184C3.02011 30.3912 1.7295 32.1517 1.10401 34.1818C-0.116549 38.8041 2.55941 43.2919 5.06209 46.9634C6.57253 49.1543 8.22689 51.2423 10.0142 53.2137C10.5481 53.7233 10.9716 54.3371 11.2584 55.0172C11.8664 56.2248 12.8247 58.6819 14.1821 59.0801C14.3443 59.1342 14.5173 59.1473 14.6859 59.1184C14.8544 59.0895 15.0131 59.0195 15.148 58.9144C15.2962 58.7686 15.4066 58.5889 15.4695 58.3908C15.7927 58.6241 16.1852 58.7413 16.5834 58.7234C16.9816 58.7055 17.362 58.5534 17.6629 58.292C17.6878 58.2674 17.7029 58.2345 17.7054 58.1995C17.7079 58.1645 17.6976 58.1298 17.6763 58.1019C17.6551 58.074 17.6245 58.0548 17.5901 58.0478C17.5558 58.0408 17.52 58.0466 17.4896 58.064C17.2278 58.2167 16.9287 58.2935 16.6258 58.2859C16.3228 58.2782 16.028 58.1864 15.7743 58.0207C15.3095 57.7033 14.8977 57.3147 14.5537 56.8693C14.4321 56.7112 14.2497 56.9726 14.3113 57.1117C14.5121 57.5391 14.8187 57.9083 15.202 58.1841C15.2362 58.2099 15.1959 58.2601 15.1602 58.3194C14.6548 59.1683 13.6964 58.276 13.3066 57.7912C12.3102 56.5562 11.7987 54.5916 10.6656 53.1552C11.1492 52.451 11.7003 51.7955 12.311 51.1982C12.96 50.5681 14.211 49.6956 14.2588 49.6022C15.525 51.1982 18.8417 50.0072 19.9756 51.759C20.1879 52.0927 20.299 52.4808 20.2955 52.8762C20.2955 53.2745 20.0873 53.5952 20.0614 53.976C20.0617 54.0053 20.0696 54.0341 20.0844 54.0595C20.0991 54.0849 20.1202 54.106 20.1456 54.1208C20.1709 54.1356 20.1997 54.1435 20.229 54.1438C20.2584 54.1442 20.2873 54.1369 20.313 54.1226C20.8496 53.751 20.845 52.8071 20.693 52.2439C20.5968 51.8809 20.4188 51.5447 20.1728 51.261C19.9267 50.9772 19.6191 50.7535 19.2733 50.6069C18.5266 50.3291 17.7395 50.1751 16.9432 50.1509C16.0509 50.158 15.1851 49.8477 14.5005 49.2754C14.6076 48.8766 14.5809 48.4537 14.4245 48.0715C13.9137 46.1925 13.3182 44.3375 12.64 42.5121C13.2724 42.0265 13.8697 41.5074 14.54 41.0742C16.5629 39.8391 18.8034 39.0022 21.1406 38.6088C18.9134 40.5828 16.9697 42.8551 15.3646 45.3614C15.2696 45.508 15.4946 45.6821 15.6078 45.543C17.808 42.5722 20.3513 39.8717 23.185 37.4976C26.1358 35.1386 29.5837 33.4803 33.2687 32.6481C35.11 32.1474 37.0417 32.0764 38.9148 32.4406C40.8201 32.9604 41.6948 34.6317 42.1189 36.4245C43.0978 40.4951 42.3705 44.8423 41.5824 48.8779C40.6467 53.3871 39.4084 57.8282 37.8758 62.171C37.7892 62.4135 38.1616 62.5085 38.2558 62.2752C39.8484 58.1933 41.0574 53.972 41.8674 49.666C42.7163 45.5521 43.512 41.1798 42.7087 36.9869ZM74.8726 66.1808C73.1978 66.7271 71.6343 67.5691 70.2564 68.6668C65.1378 63.5108 61.0933 57.3904 58.3571 50.6601C58.2446 50.391 57.803 50.5035 57.9155 50.7809C60.7003 57.6506 64.8282 63.8954 70.0573 69.1494C70.0936 69.1872 70.1419 69.2113 70.194 69.2176C70.246 69.224 70.2987 69.2122 70.343 69.1843C71.7991 68.1321 73.3468 67.2131 74.9676 66.4384C74.9964 66.4222 75.0185 66.3963 75.0299 66.3652C75.0413 66.3342 75.0413 66.3002 75.0298 66.2692C75.0184 66.2382 74.9963 66.2123 74.9675 66.1961C74.9387 66.1799 74.9051 66.1745 74.8726 66.1808ZM58.0888 48.7304C54.4667 50.3333 50.688 51.5558 46.8134 52.3784C44.3298 52.8952 43.7788 52.8268 43.037 53.1491C43.0154 53.1622 42.9982 53.1814 42.9875 53.2043C42.9768 53.2272 42.9731 53.2527 42.9768 53.2777C42.9806 53.3027 42.9916 53.326 43.0085 53.3448C43.0254 53.3635 43.0475 53.3769 43.072 53.3832C43.6782 53.4276 44.2877 53.3807 44.88 53.2441C48.8549 52.5989 52.7428 51.5006 56.4677 49.9708C57.0916 49.7473 57.6969 49.4752 58.278 49.1568C58.3239 49.1255 58.3573 49.0792 58.3724 49.0258C58.3876 48.9725 58.3836 48.9155 58.3611 48.8648C58.3386 48.8141 58.299 48.7729 58.2493 48.7483C58.1995 48.7238 58.1427 48.7174 58.0888 48.7304Z" fill="#191919"/>
<path d="M24.8852 59.5908C23.7535 59.7116 23.2496 60.344 20.6246 60.344C19.1312 60.2972 17.656 60.0016 16.2599 59.4692C16.2227 59.4609 16.1838 59.466 16.15 59.4837C16.1162 59.5013 16.0897 59.5303 16.0751 59.5655C16.0606 59.6007 16.059 59.64 16.0705 59.6763C16.0821 59.7126 16.1061 59.7437 16.1383 59.7641C18.6296 61.4361 23.7619 60.917 25.0242 59.9108C25.048 59.8831 25.0635 59.8494 25.0689 59.8134C25.0743 59.7774 25.0695 59.7406 25.055 59.7072C25.0405 59.6738 25.0169 59.6451 24.9868 59.6246C24.9568 59.604 24.9215 59.5923 24.8852 59.5908Z" fill="#191919"/>
<path d="M34.3426 14.3754C34.4178 14.3754 34.4912 14.3531 34.5537 14.3113C34.6162 14.2696 34.6649 14.2102 34.6937 14.1408C34.7225 14.0713 34.73 13.9949 34.7153 13.9212C34.7007 13.8475 34.6645 13.7798 34.6113 13.7267C34.5582 13.6735 34.4905 13.6373 34.4168 13.6227C34.343 13.608 34.2666 13.6155 34.1972 13.6443C34.1278 13.673 34.0684 13.7217 34.0267 13.7842C33.9849 13.8467 33.9626 13.9202 33.9626 13.9954C33.9638 14.0958 34.0042 14.1917 34.0752 14.2627C34.1462 14.3338 34.2422 14.3742 34.3426 14.3754ZM35.1908 72.9881C35.6171 74.5939 37.9534 75.1267 39.348 75.3266C40.229 75.4712 41.128 75.4681 42.008 75.3175C42.6319 75.205 43.9657 74.9192 44.1732 74.2177C44.1836 74.1791 44.1849 74.1387 44.1772 74.0995C44.1694 74.0603 44.1528 74.0234 44.1286 73.9916C44.1044 73.9599 44.0732 73.934 44.0375 73.9162C44.0017 73.8983 43.9624 73.8889 43.9224 73.8887C43.5842 73.8453 43.3243 74.0878 43.0302 74.2269C41.1658 74.898 39.118 74.8484 37.2884 74.0878C36.6067 73.7917 35.9877 73.3684 35.4644 72.8406C35.4405 72.8137 35.4083 72.7956 35.3728 72.7892C35.3374 72.7829 35.3008 72.7888 35.2691 72.8059C35.2374 72.823 35.2124 72.8503 35.1982 72.8833C35.184 72.9164 35.1814 72.9533 35.1908 72.9881ZM76.7772 71.1952C77.6611 72.6506 80.103 72.4424 81.5234 72.2258C82.383 72.1064 83.217 71.846 83.9919 71.4551C84.5285 71.1694 85.7581 70.4937 85.7239 69.7923C85.7229 69.7526 85.713 69.7136 85.695 69.6782C85.6769 69.6429 85.6511 69.612 85.6196 69.5879C85.588 69.5639 85.5514 69.5472 85.5125 69.5391C85.4736 69.5311 85.4334 69.5319 85.3948 69.5415C85.0741 69.5848 84.9009 69.8789 84.6668 70.0871C83.3269 71.3031 81.0948 71.7591 79.2974 71.6543C78.4884 71.5909 77.7013 71.3608 76.9855 70.9786C76.8555 70.9186 76.6822 71.0569 76.7772 71.1952Z" fill="#FF6347"/>
<path d="M135.122 48.4104C134.862 44.4379 134.853 40.4692 134.939 36.5027C134.937 36.4344 134.916 36.368 134.877 36.3118C134.838 36.2556 134.783 36.212 134.72 36.1862C134.656 36.1605 134.587 36.1538 134.52 36.167C134.453 36.1801 134.391 36.2126 134.342 36.2603C131.027 38.9098 127.893 41.7789 124.963 44.8483C124.907 44.9098 124.874 44.9891 124.87 45.0723C124.866 45.1555 124.892 45.2374 124.943 45.3035C124.994 45.3697 125.066 45.4159 125.147 45.4341C125.228 45.4523 125.314 45.4413 125.388 45.4031C126.524 45.904 127.673 46.3746 128.834 46.8144C125.115 54.3886 120.655 62.6042 115.948 70.3357C114.13 67.8588 113.562 67.1817 112.925 66.4125C112.531 65.9537 112.112 65.517 111.67 65.1046C111.705 64.9928 111.705 64.8729 111.67 64.7609C111.636 64.649 111.568 64.5503 111.476 64.4779C111.383 64.4055 111.271 64.3629 111.154 64.3558C111.037 64.3487 110.921 64.3774 110.821 64.4381C109.204 65.404 104.919 68.4197 95.2847 74.4495C90.1167 77.6887 73.9546 87.1628 71.2178 88.9382C71.1205 88.6152 68.9484 82.6591 67.5888 79.3774C67.2663 78.4512 66.8648 77.5544 66.3888 76.6969C66.1904 76.3929 65.7633 75.9551 65.3111 76.0357C63.9279 76.2819 8.64701 93.0901 8.08309 93.277C7.08162 93.5766 6.1057 93.9558 5.16469 94.4109C5.09881 94.4516 5.0497 94.5146 5.02626 94.5884C5.00282 94.6622 5.00662 94.742 5.03696 94.8132C5.0673 94.8845 5.12217 94.9425 5.19162 94.9767C5.26107 95.011 5.3405 95.0192 5.41549 94.9999C5.78181 94.9156 5.89049 94.9072 6.37689 94.8183C7.30333 94.6329 64.9843 77.3573 65.4395 77.1863C65.694 78.0463 66.0066 78.8881 66.3751 79.7057C66.8166 80.8457 69.3626 87.6302 69.5618 88.1934C69.8924 89.113 70.0892 90.4027 70.9738 90.1587C72.2871 90.2902 104.849 70.2262 111.01 65.8068C112.302 67.7418 112.043 67.2409 115.435 71.9377C115.498 72.0391 115.585 72.1229 115.689 72.1809C115.793 72.239 115.91 72.2695 116.029 72.2695C116.148 72.2695 116.265 72.239 116.368 72.1809C116.472 72.1229 116.559 72.0391 116.622 71.9377C121.847 63.4121 126.035 55.6357 130.15 47.3137C131.639 47.8513 133.152 48.3248 134.688 48.7342C134.738 48.7478 134.791 48.7498 134.842 48.74C134.893 48.7302 134.942 48.7089 134.983 48.6778C135.025 48.6466 135.059 48.6063 135.083 48.56C135.107 48.5137 135.12 48.4625 135.122 48.4104Z" fill="#FF6347"/>
<path d="M108.69 53.1475C108.236 52.9365 107.735 52.8469 107.236 52.8876C107.279 52.4027 107.382 51.9353 107.452 51.4497C107.478 51.2597 107.21 51.0864 107.106 51.303C106.867 51.8055 106.729 52.3497 106.698 52.9051C106.206 52.9067 105.72 53.0222 105.279 53.2425C105.248 53.2618 105.224 53.2905 105.211 53.3243C105.198 53.3581 105.196 53.3953 105.206 53.4303C105.215 53.4653 105.236 53.4962 105.265 53.5185C105.293 53.5408 105.328 53.5533 105.365 53.5541C105.802 53.551 106.239 53.5223 106.673 53.4682C106.615 54.027 106.705 54.5911 106.932 55.1045C106.957 55.1439 106.993 55.1744 107.036 55.1916C107.078 55.2088 107.126 55.2118 107.17 55.2001C107.215 55.1885 107.255 55.1627 107.283 55.1268C107.312 55.0908 107.329 55.0465 107.331 55.0004C107.334 54.4848 107.3 53.9696 107.227 53.4591C107.7 53.5226 108.179 53.5429 108.656 53.5199C108.812 53.485 108.821 53.2243 108.69 53.1475ZM100.178 29.2972C99.6975 29.1527 99.1818 29.1834 98.7222 29.3838C98.455 28.7919 98.0062 28.3005 97.4408 27.9809C97.4015 27.9594 97.3559 27.9527 97.312 27.9619C97.2682 27.971 97.2291 27.9955 97.2016 28.0309C97.1742 28.0663 97.1602 28.1103 97.1623 28.155C97.1644 28.1997 97.1823 28.2423 97.2128 28.275C97.5701 28.6776 97.8889 29.1127 98.1651 29.5746C97.7415 29.7127 97.354 29.9432 97.0304 30.2495C97.004 30.2761 96.9871 30.3107 96.9823 30.3479C96.9775 30.3851 96.985 30.4228 97.0038 30.4553C97.0225 30.4878 97.0515 30.5132 97.0861 30.5277C97.1207 30.5421 97.1591 30.5448 97.1954 30.5352C97.6027 30.406 97.9835 30.2062 98.3734 30.0504C98.4663 30.3082 98.53 30.5756 98.5634 30.8476C98.5673 31.1039 98.6112 31.358 98.6933 31.6008C98.7137 31.6343 98.7423 31.662 98.7764 31.6812C98.8106 31.7004 98.8491 31.7105 98.8883 31.7105C98.9275 31.7105 98.966 31.7004 99.0001 31.6812C99.0343 31.662 99.0629 31.6343 99.0832 31.6008C99.2624 31.0291 99.2095 30.41 98.9358 29.8771C99.3649 29.8308 99.7835 29.7139 100.175 29.5313C100.255 29.4705 100.273 29.3322 100.178 29.2972ZM127.475 20.4554C127.841 19.921 128.029 19.2844 128.011 18.6367C128.01 18.5928 127.993 18.5507 127.964 18.5179C127.935 18.485 127.895 18.4636 127.852 18.4573C127.808 18.451 127.764 18.4603 127.727 18.4836C127.689 18.5068 127.661 18.5424 127.648 18.5842C127.486 19.0989 127.278 19.5976 127.025 20.0738C126.69 19.7806 126.293 19.5675 125.863 19.4506C125.711 19.4157 125.559 19.6148 125.699 19.7364C126.011 20.0222 126.383 20.2388 126.73 20.4964C126.144 21.2055 125.799 21.2123 125.569 21.5703C125.549 21.6047 125.538 21.644 125.538 21.6841C125.538 21.7241 125.549 21.7635 125.569 21.7979C125.589 21.8324 125.618 21.8608 125.654 21.8801C125.689 21.8995 125.728 21.909 125.768 21.9077C126.059 21.8396 126.332 21.714 126.573 21.5385C126.814 21.3629 127.017 21.1409 127.171 20.8855C127.43 21.2317 127.747 21.5307 128.107 21.7694C128.183 21.8036 128.314 21.7603 128.298 21.6569C128.182 21.1682 127.888 20.74 127.475 20.4554ZM126.184 3.98312C124.898 2.30656 122.867 0.81392 120.659 1.00392C120.628 1.00463 120.598 1.01426 120.573 1.03165C120.547 1.04904 120.527 1.07345 120.515 1.10192C120.503 1.13039 120.5 1.16169 120.505 1.19205C120.511 1.22241 120.525 1.25051 120.546 1.27296C121.492 2.32441 122.019 3.68623 122.028 5.10032C121.795 4.93204 121.531 4.81302 121.251 4.75055C120.971 4.68808 120.681 4.68349 120.399 4.73704C120.252 4.76288 120.269 4.95288 120.365 5.0228C120.714 5.38888 120.967 5.83641 121.099 6.3248C121.232 6.8132 121.241 7.327 121.125 7.8196C120.978 8.75516 120.64 9.57748 120.891 10.5305C121.086 11.3123 121.56 11.9962 122.223 12.4537C122.886 12.9113 123.694 13.1111 124.494 13.0157C127.664 12.622 129.068 7.74284 126.184 3.98312ZM124.824 10.5191C124.659 10.597 124.476 10.6321 124.293 10.621C124.11 10.6099 123.933 10.5531 123.778 10.4557C123.623 10.3583 123.495 10.2236 123.405 10.0637C123.316 9.90392 123.268 9.72417 123.266 9.541C123.166 9.21819 123.187 8.87023 123.323 8.56137C123.46 8.25251 123.704 8.00361 124.01 7.86064C124.356 7.77581 124.721 7.82648 125.031 8.00227C125.34 8.17805 125.57 8.46562 125.675 8.80594C125.779 9.14627 125.749 9.51355 125.591 9.83241C125.432 10.1513 125.158 10.3975 124.824 10.5206V10.5191ZM118.6 26.9154C116.792 23.9612 113.785 21.1477 110.156 20.9919C110.129 20.9924 110.102 20.9999 110.079 21.0136C110.055 21.0273 110.036 21.0468 110.022 21.0703C110.008 21.0938 110 21.1204 110 21.1477C109.999 21.1749 110.005 21.2019 110.018 21.226C111.468 23.3613 112.05 25.9684 111.646 28.5174C111.3 28.1313 110.873 27.8269 110.395 27.6262C109.918 27.4255 109.401 27.3335 108.883 27.3569C108.853 27.3579 108.823 27.3678 108.798 27.3852C108.772 27.4027 108.753 27.427 108.741 27.4553C108.729 27.4837 108.726 27.5148 108.731 27.5451C108.736 27.5753 108.75 27.6034 108.771 27.626L108.797 27.6518C108.798 27.6731 108.804 27.6938 108.814 27.7126C109.3 28.4041 109.617 29.2001 109.738 30.0364C109.86 30.8726 109.784 31.7258 109.516 32.5272C109.091 34.1126 108.216 35.4912 108.381 37.1951C108.502 38.6174 109.157 39.9411 110.215 40.8999C111.272 41.8587 112.654 42.3815 114.081 42.3631C119.532 42.2795 122.997 34.1027 118.6 26.9154ZM114.344 39.032C113.079 39.4272 111.888 38.8945 111.706 36.7201C111.573 35.1294 112.737 33.7212 114.228 34.1361C114.719 34.2937 115.157 34.5858 115.492 34.9793C115.826 35.3729 116.043 35.8522 116.119 36.3629C116.182 36.9451 116.038 37.5307 115.714 38.0182C115.39 38.5056 114.905 38.8643 114.344 39.032ZM145.09 19.3549C144.71 16.5497 143.4 13.4489 140.751 12.1068C140.723 12.0922 140.692 12.0859 140.661 12.0886C140.63 12.0913 140.6 12.103 140.575 12.1221C140.551 12.1413 140.532 12.1672 140.522 12.1967C140.511 12.2261 140.51 12.258 140.517 12.2884C140.87 14.369 140.425 16.5063 139.27 18.2726C139.133 17.8665 138.908 17.4954 138.612 17.1856C138.315 16.8758 137.955 16.6349 137.555 16.4798C137.534 16.4737 137.512 16.4722 137.491 16.4753C137.469 16.4785 137.448 16.4862 137.43 16.498C137.412 16.5099 137.396 16.5255 137.385 16.5438C137.373 16.5622 137.365 16.5829 137.362 16.6044C137.337 16.7694 138.1 18.588 136.057 20.8604C135.13 21.891 134.099 22.6533 133.71 24.0388C133.384 25.1576 133.484 26.3575 133.991 27.4067C134.498 28.4559 135.376 29.28 136.455 29.7198C140.609 31.4222 146.047 26.3872 145.09 19.3549ZM140.119 26.416C139.345 28.9377 135.179 27.7742 136.724 25.1955C136.898 24.7227 137.242 24.3319 137.688 24.0995C138.135 23.8672 138.653 23.81 139.14 23.9392C139.568 24.1708 139.902 24.5462 140.081 24.9992C140.26 25.4523 140.273 25.954 140.119 26.416Z" fill="#FF6347"/>
<path d="M37.5643 9.3267C37.4364 8.84876 37.179 8.41545 36.8204 8.07465C36.4617 7.73385 36.0159 7.49883 35.532 7.39554C35.2204 7.3697 34.9689 7.48218 34.6656 7.37806C34.3844 7.24567 34.1151 7.0893 33.8608 6.91066C32.5232 6.18866 30.5236 6.1803 28.5605 7.51866C26.2311 9.11466 24.8707 11.7275 22.7663 13.5812C18.1995 17.6092 11.4575 19.2888 8.46842 23.4361C8.44851 23.4704 8.43675 23.5089 8.43404 23.5485C8.43134 23.588 8.43776 23.6277 8.45281 23.6644C8.46787 23.7012 8.49115 23.7339 8.52087 23.7602C8.55058 23.7865 8.58594 23.8056 8.62422 23.8161C10.9111 24.2318 12.5131 26.128 13.4312 28.1549C14.5651 30.6629 14.7909 33.481 15.7257 36.0589C15.7372 36.0955 15.7568 36.129 15.783 36.157C15.8091 36.1851 15.8412 36.207 15.8768 36.2211C15.9125 36.2352 15.9508 36.2412 15.9891 36.2387C16.0274 36.2361 16.0646 36.2251 16.0981 36.2064C22.3042 33.0972 27.2701 28.1405 27.9974 21.2678C28.2315 19.0638 28.119 16.5558 29.6603 14.7896C31.0716 13.17 33.2718 12.5643 34.7697 11.0489C35.2112 11.9458 35.864 12.722 36.672 13.3106C36.6371 13.9863 36.6029 14.6611 36.5504 15.3284C36.2738 15.3284 35.4036 14.7356 34.7842 15.5883C34.715 15.6833 34.8533 15.8163 34.9483 15.7525C35.7 15.2623 35.9242 15.6507 36.5162 15.735C36.4726 16.2852 36.412 16.8339 36.3346 17.3804C36.1613 18.5409 35.9189 19.8489 34.905 20.5853C34.4407 20.8952 33.9111 21.0939 33.3575 21.1658C32.8039 21.2378 32.2412 21.1811 31.713 21.0003C30.4659 20.6112 29.6686 19.7364 28.7163 18.9133C28.5514 18.775 28.2489 18.9658 28.3956 19.1649C28.9102 19.8574 29.5642 20.4344 30.3154 20.8587C31.0667 21.2829 31.8985 21.545 32.7573 21.6281C32.7113 21.8471 32.6912 22.0708 32.6972 22.2946C32.6794 22.4417 32.6909 22.5909 32.7309 22.7336C32.7709 22.8763 32.8388 23.0096 32.9305 23.126C32.952 23.1465 32.9784 23.1612 33.0071 23.1685C33.0359 23.1759 33.066 23.1758 33.0947 23.1681C33.1234 23.1605 33.1497 23.1456 33.1709 23.125C33.1922 23.1043 33.2078 23.0785 33.2163 23.05C33.2585 22.7986 33.2437 22.541 33.173 22.2961C33.1563 22.0681 33.1821 21.8545 33.1821 21.6296C33.7914 21.6066 34.3846 21.4276 34.905 21.1097C35.4038 20.7518 35.8192 20.2901 36.1228 19.7564C36.4264 19.2228 36.6109 18.6297 36.6637 18.0181C36.9458 16.5376 37.0479 15.0284 36.9677 13.5234C36.9851 13.5409 37.011 13.5493 37.0285 13.5667C37.0614 13.5849 37.098 13.5955 37.1356 13.5977C37.1731 13.5999 37.2107 13.5938 37.2456 13.5796C37.2804 13.5655 37.3117 13.5438 37.3371 13.5161C37.3625 13.4883 37.3815 13.4553 37.3925 13.4193C37.9349 12.119 37.9958 10.6679 37.5643 9.3267ZM31.8399 7.6813C31.2547 7.77508 30.6841 7.94393 30.1421 8.18366C29.5881 8.50362 29.3365 9.02346 28.8691 9.41334C28.7475 9.50834 28.5142 9.45666 28.5317 9.27502C28.6441 8.04458 30.7227 6.91066 31.8399 7.35222C31.8753 7.36282 31.9064 7.38456 31.9284 7.4142C31.9505 7.44384 31.9624 7.47981 31.9624 7.51676C31.9624 7.55371 31.9505 7.58968 31.9284 7.61933C31.9064 7.64897 31.8753 7.6707 31.8399 7.6813ZM54.2957 34.58C54.2265 34.5883 54.1482 34.5883 54.0791 34.5975C50.8194 34.9091 46.5794 36.6548 43.6671 38.1482C43.5151 38.2242 43.6237 38.5031 43.7887 38.4339C46.9921 37.1784 51.1295 35.1659 54.5708 35.0649C54.4739 34.9063 54.3821 34.7445 54.2957 34.58ZM76.4915 61.6861C75.7315 59.378 74.8894 57.079 73.9835 54.8188C73.846 54.9126 73.6908 54.9775 73.5275 55.0095C74.4395 57.2523 75.2511 59.53 76.0301 61.8161C76.1282 62.111 76.5887 61.9841 76.4915 61.6861ZM72.4558 50.4366C72.4425 50.415 72.4225 50.3983 72.3988 50.3891C72.3751 50.3799 72.3491 50.3786 72.3247 50.3855C72.3002 50.3923 72.2786 50.407 72.2632 50.4272C72.2478 50.4474 72.2394 50.472 72.2393 50.4974C72.2567 51.0773 72.4673 51.6754 72.5433 52.2553C72.7226 53.7505 72.6906 55.2636 72.4483 56.7499C72.435 57.0488 72.3573 57.3413 72.2203 57.6072C71.7741 58.1696 71.5971 57.1512 71.4663 56.395C71.3194 54.6303 71.0005 52.8841 70.514 51.1814C70.5019 51.1484 70.4777 51.1212 70.4463 51.1052C70.4149 51.0893 70.3786 51.0857 70.3448 51.0953C70.3109 51.1049 70.2819 51.1269 70.2635 51.157C70.2452 51.187 70.2388 51.2229 70.2458 51.2574C70.3172 51.6306 70.3978 52.0045 70.4616 52.3777C68.877 52.5905 68.3025 51.3137 68.4788 49.707C68.6087 48.5207 69.0153 47.3252 68.4788 46.1738C68.418 46.0522 68.2189 46.1388 68.2508 46.2688C68.7357 47.8108 67.8708 49.3171 68.1117 50.8759C68.1774 51.461 68.4623 51.9994 68.9089 52.383C69.1326 52.5632 69.3947 52.6896 69.675 52.7525C69.9553 52.8153 70.2462 52.8129 70.5255 52.7455C70.7132 53.7616 70.8895 54.7717 71.0043 55.8129C71.0651 56.3494 71.1692 58.5405 72.1823 58.1164C72.693 57.9082 72.7142 57.2044 72.7713 56.7484C72.9886 55.3058 73.006 53.8402 72.8229 52.3929C72.8113 51.7248 72.6872 51.0634 72.4558 50.4366Z" fill="#191919"/>
<path d="M73.9979 49.7701C73.9766 49.7515 73.9505 49.7392 73.9226 49.7346C73.8946 49.7301 73.866 49.7334 73.8398 49.7442C73.8137 49.755 73.7911 49.7729 73.7746 49.7959C73.7581 49.8189 73.7483 49.846 73.7463 49.8742C73.8008 50.2437 73.8938 50.6064 74.0237 50.9565C74.1176 51.3661 74.1725 51.7837 74.1879 52.2036C74.2204 52.5974 74.1262 52.9912 73.919 53.3277C73.7119 53.6642 73.4027 53.9256 73.0365 54.074C73.013 54.0887 72.9948 54.1106 72.9845 54.1363C72.9742 54.162 72.9722 54.1904 72.979 54.2173C72.9857 54.2441 73.0008 54.2682 73.0221 54.286C73.0433 54.3038 73.0696 54.3145 73.0973 54.3164C73.481 54.2503 73.8326 54.0605 74.0984 53.7759C74.3642 53.4913 74.5296 53.1276 74.5694 52.7402C74.6225 52.2107 74.5933 51.6761 74.4828 51.1556C74.4475 50.6588 74.2801 50.1805 73.9979 49.7701ZM75.2618 49.0686C75.2432 49.0496 75.2193 49.0366 75.1933 49.0314C75.1672 49.0261 75.1402 49.0287 75.1156 49.0389C75.0911 49.0491 75.0702 49.0665 75.0556 49.0887C75.041 49.1109 75.0334 49.137 75.0338 49.1636C75.0117 49.5436 75.3636 49.9685 75.5536 50.9739C75.6836 51.6496 75.6745 52.8093 74.7997 52.9743C74.6614 53.0001 74.6963 53.2167 74.8347 53.2167C75.6228 53.2258 75.926 52.3245 75.9519 51.6754C75.9587 51.2093 75.8944 50.745 75.7611 50.2983C75.7119 49.85 75.539 49.4243 75.2618 49.0686Z" fill="#191919"/>
<path d="M75.2876 46.6001C74.2555 45.3545 72.7158 44.669 71.8068 43.2919C71.7308 43.1794 71.5119 43.2485 71.5727 43.3876C72.1443 44.764 73.573 45.4487 74.5861 46.4535C75.1821 47.0511 75.6345 47.7764 75.9091 48.5745C76.1837 49.3726 76.2735 50.2227 76.1715 51.0606C76.1456 51.3205 76.5439 51.3114 76.5781 51.0606C76.6782 50.2684 76.6154 49.4641 76.3935 48.6971C76.1716 47.93 75.7953 47.2165 75.2876 46.6001Z" fill="#191919"/>
<path d="M71.8843 42.7727C68.7904 36.8881 63.7523 30.0807 58.7553 26.2807C54.553 23.1204 49.5792 21.1466 44.3533 20.5655C37.0452 19.6049 36.5253 22.179 33.312 23.3365C32.5103 23.6255 31.6445 23.6883 30.8094 23.5181C30.4065 23.4786 30.0157 23.3586 29.6601 23.1653C29.3045 22.972 28.9913 22.7092 28.7391 22.3926C28.7116 22.3502 28.6688 22.32 28.6195 22.3084C28.5703 22.2968 28.5185 22.3047 28.475 22.3304C28.4314 22.3561 28.3995 22.3976 28.3858 22.4463C28.3722 22.495 28.3779 22.5471 28.4017 22.5917C28.9732 23.6314 30.3777 23.9863 31.4759 24.0555C34.2164 24.2265 36.121 21.8583 38.4474 21.1675C41.0587 20.3915 44.7766 20.9896 47.4108 21.5475C50.8035 22.2801 54.0325 23.6306 56.9366 25.5314C62.6222 29.2554 68.1337 36.6327 71.3767 42.756C70.4283 43.1916 69.6023 43.8547 68.972 44.6864C68.9568 44.7075 68.945 44.7308 68.937 44.7556C68.6597 45.0596 68.3914 45.3704 68.1315 45.682C64.5207 43.0329 61.0957 40.1393 57.8806 37.0218C56.9167 35.9928 56.0278 34.8961 55.2206 33.7401C55.1514 33.6535 54.9873 33.7485 55.0298 33.8526C56.3218 37.0887 65.2655 44.029 68.0813 46.1069C68.1166 46.1292 68.1584 46.1388 68.1998 46.1341C68.2413 46.1294 68.2799 46.1106 68.3093 46.081C68.5867 45.7253 68.8808 45.397 69.1757 45.0588C69.1978 45.0407 69.2179 45.0203 69.2357 44.998C69.2449 44.9897 69.2532 44.9722 69.2623 44.9638C69.8186 44.2363 70.5399 43.6515 71.3668 43.2576C71.3668 43.2598 71.3677 43.262 71.3692 43.2635C71.3708 43.2651 71.3729 43.266 71.3751 43.266L71.8684 43.0327C71.8925 42.9941 71.9066 42.9501 71.9094 42.9047C71.9122 42.8593 71.9035 42.814 71.8843 42.7727Z" fill="#191919"/>
<path d="M85.9139 57.4947C85.5453 56.091 84.6554 53.3558 84.1994 51.987C84.0483 51.3847 83.8245 50.8031 83.5329 50.255C83.4569 50.1334 83.238 50.179 83.2555 50.331C83.2965 50.8759 83.4348 51.2331 84.3293 53.9159C84.7359 55.1456 85.1433 56.3752 85.6213 57.5791C85.6325 57.6179 85.6587 57.6506 85.694 57.6702C85.7294 57.6897 85.771 57.6944 85.8098 57.6832C85.8486 57.672 85.8814 57.6459 85.9009 57.6105C85.9204 57.5752 85.9251 57.5335 85.9139 57.4947ZM91.6641 57.12C92.1593 55.3803 92.4986 53.6 92.6779 51.8C92.7903 51.2179 92.8078 50.6215 92.7296 50.0338C92.7038 49.8947 92.513 49.9213 92.4788 50.0338C92.2166 50.7718 92.4028 52.0455 91.3616 57.0395C91.3555 57.078 91.3638 57.1174 91.385 57.15C91.4062 57.1827 91.4388 57.2064 91.4765 57.2164C91.5141 57.2264 91.5542 57.2221 91.5888 57.2043C91.6235 57.1865 91.6503 57.1565 91.6641 57.12ZM97.3026 58.7077C99.0422 57.1007 100.663 55.3697 102.152 53.5283C102.273 53.3641 102.013 53.165 101.875 53.3117C101.07 54.1697 100.316 55.0703 99.5278 55.936C98.7397 56.8016 97.9257 57.6505 97.1201 58.52C97.1008 58.5452 97.0911 58.5765 97.0929 58.6082C97.0948 58.6399 97.108 58.6699 97.1301 58.6927C97.1523 58.7155 97.1819 58.7296 97.2135 58.7323C97.2452 58.7351 97.2768 58.7263 97.3026 58.7077ZM51.0049 65.9558C50.235 64.4358 48.9627 62.1946 48.4064 61.1838C48.1564 60.659 47.8507 60.1626 47.4944 59.7033C47.4721 59.6821 47.4436 59.6688 47.413 59.6653C47.3825 59.6619 47.3516 59.6685 47.3252 59.6841C47.2987 59.6997 47.2781 59.7236 47.2664 59.752C47.2547 59.7804 47.2526 59.8119 47.2603 59.8416C47.4622 60.3856 47.7237 60.9056 48.0401 61.392C48.3342 61.9118 50.1096 65.0727 50.7335 66.1116C50.7542 66.1476 50.7883 66.1739 50.8284 66.1847C50.8684 66.1955 50.9111 66.19 50.9471 66.1694C50.9831 66.1487 51.0094 66.1146 51.0202 66.0745C51.031 66.0345 51.0255 65.9918 51.0049 65.9558ZM54.5556 65.6875C54.8421 64.0087 54.9971 62.0692 55.1446 60.3531C55.2321 59.7745 55.2467 59.1873 55.1879 58.6051C55.1613 58.4531 54.9455 58.4751 54.9021 58.6051C54.7785 59.1536 54.7204 59.7149 54.7289 60.2771C54.6855 60.8744 54.4081 64.4685 54.3299 65.6639C54.304 65.7916 54.532 65.8266 54.5556 65.6875ZM58.158 67.2721C58.8351 66.519 59.4568 65.7225 60.0808 64.9252C60.7401 64.2088 61.3342 63.4351 61.8561 62.6133C61.871 62.5821 61.8747 62.5467 61.8667 62.5131C61.8587 62.4794 61.8395 62.4495 61.8123 62.4282C61.785 62.407 61.7513 62.3957 61.7167 62.3962C61.6821 62.3966 61.6487 62.4089 61.6221 62.4309C61.2616 62.7846 60.9339 63.1702 60.6432 63.5831C59.7707 64.6988 58.7865 65.9087 57.933 67.0988C57.8464 67.228 58.0554 67.3861 58.158 67.2721Z" fill="#FF6347"/>
</svg>
