<svg width="144" height="152" viewBox="0 0 144 152" fill="none" xmlns="http://www.w3.org/2000/svg">
<path d="M68.6005 26.0627C69.6987 24.4332 72.32 25.0428 73.9927 23.5836C74.2439 23.368 74.4456 23.1007 74.584 22.8C74.6425 22.5849 74.5202 22.2437 74.2914 22.3121C73.8354 22.4481 73.96 22.8441 73.1636 23.3305C71.6671 24.2364 69.7056 23.9294 68.4067 25.2168C67.3207 26.2945 67.3617 27.9338 66.5584 29.1012C66.505 29.1871 66.4563 29.2759 66.4125 29.3672C66.3023 29.5716 66.5303 29.833 66.7438 29.6985C67.7698 29.054 67.8291 27.208 68.6005 26.0627ZM80.0818 20.5375C79.603 21.2177 78.8582 22.8456 77.1786 23.7333C76.8274 23.9139 76.4556 24.0512 76.0713 24.1422C75.9921 24.1652 75.9238 24.2158 75.8787 24.285C75.8337 24.3541 75.8151 24.4371 75.8261 24.5189C75.8372 24.6007 75.8772 24.6757 75.9389 24.7304C76.0007 24.7852 76.08 24.8159 76.1625 24.817C77.9637 24.6552 80.0803 22.4413 80.5409 20.7298C80.5545 20.6717 80.5471 20.6106 80.52 20.5574C80.4929 20.5043 80.4478 20.4625 80.3927 20.4394C80.3377 20.4163 80.2762 20.4135 80.2193 20.4315C80.1624 20.4495 80.1137 20.487 80.0818 20.5375ZM78.2898 27.7871C78.3458 27.818 78.4097 27.8319 78.4736 27.827C78.5374 27.8221 78.5984 27.7987 78.6492 27.7597C78.6999 27.7206 78.7382 27.6676 78.7592 27.6072C78.7803 27.5467 78.7833 27.4814 78.7678 27.4193C78.5732 26.7702 77.4431 26.2572 76.7667 26.0969C75.3361 25.8404 73.8612 26.0318 72.5434 26.6448C72.5141 26.6529 72.4867 26.6667 72.4627 26.6854C72.4388 26.7041 72.4187 26.7273 72.4037 26.7537C72.3887 26.7801 72.3791 26.8093 72.3753 26.8394C72.3716 26.8696 72.3738 26.9002 72.3819 26.9295C72.39 26.9588 72.4038 26.9862 72.4224 27.0101C72.4411 27.0341 72.4643 27.0542 72.4908 27.0692C72.5172 27.0842 72.5463 27.0938 72.5765 27.0975C72.6066 27.1013 72.6372 27.099 72.6665 27.091C72.8945 27.0568 73.1225 27.0332 73.3422 26.9944C73.5618 26.9557 73.7845 26.8949 74.0056 26.8523C77.1589 26.242 77.8353 27.5561 78.2898 27.7871ZM78.6606 28.8846C77.3686 27.7567 75.7932 27.9285 73.8612 28.1724C73.8248 28.1705 73.7883 28.176 73.754 28.1886C73.7197 28.2013 73.6883 28.2207 73.6618 28.2459C73.6353 28.271 73.6142 28.3013 73.5998 28.3349C73.5853 28.3684 73.5779 28.4046 73.5779 28.4411C73.5779 28.4776 73.5853 28.5138 73.5998 28.5474C73.6142 28.5809 73.6353 28.6112 73.6618 28.6363C73.6883 28.6615 73.7197 28.6809 73.754 28.6936C73.7883 28.7062 73.8248 28.7117 73.8612 28.7098C76.2818 28.8131 77.1764 28.2902 78.4858 29.9349C78.9601 30.53 79.8356 29.9121 78.6606 28.8846ZM89.993 21.5445C89.9203 21.1376 89.7647 20.75 89.5359 20.4058C89.3071 20.0615 89.01 19.768 88.663 19.5434C88.4031 19.38 88.153 19.7395 88.3461 19.9538C89.2353 20.9418 89.4101 22.7217 89.3584 24.0152C89.3394 24.4796 89.2064 25.1454 89.635 25.1552C90.525 25.1704 90.199 22.3524 89.993 21.5445ZM92.0313 22.2764C92.0024 22.2309 91.9598 22.1959 91.9096 22.1764C91.8594 22.157 91.8043 22.1541 91.7523 22.1682C91.7003 22.1823 91.6542 22.2126 91.6208 22.2548C91.5873 22.2969 91.5682 22.3487 91.5662 22.4025C91.5575 22.7421 91.5848 23.0817 91.6475 23.4156C91.7995 25.3156 91.3025 26.0581 91.4955 26.4906C91.5342 26.5559 91.5971 26.6033 91.6705 26.6225C91.7439 26.6417 91.822 26.6312 91.8877 26.5932C92.52 26.1904 92.5892 23.028 92.0313 22.2764ZM39.0418 63.0131C39.1596 63.7412 39.0928 63.9251 39.2007 64.0961C39.4021 64.4168 39.7046 64.4001 39.8429 64.1805C40.1925 63.6287 39.4234 59.9283 37.6434 58.0845C37.4457 57.8955 37.2341 57.7214 37.0104 57.5639C36.8196 57.4188 36.5544 57.7007 36.6836 57.8907C37.9307 59.7398 38.6816 60.7947 39.0418 63.0131ZM41.5491 61.4452C41.9079 62.9536 42.0885 64.4989 42.0872 66.0493C42.097 66.4894 42.0659 66.5122 42.3076 66.8032C42.3466 66.8422 42.3995 66.864 42.4546 66.864C42.5098 66.864 42.5626 66.8422 42.6017 66.8032C42.857 66.5334 42.8608 66.478 42.838 65.4846C42.7256 60.7164 40.862 56.2468 38.962 54.1485C38.7819 53.9494 38.4916 54.2024 38.6056 54.4236C39.7 56.5508 40.764 58.14 41.5491 61.4452ZM87.0997 78.0292C87.8711 78.1956 142.243 87.8142 143.067 87.84C143.432 87.8514 142.951 87.8051 143.098 87.84C143.221 87.8567 143.346 87.863 143.47 87.859C143.588 87.8803 143.709 87.869 143.821 87.8264L143.647 87.8492C144.018 87.9183 144.078 87.4806 143.815 87.4281C143.776 87.4205 143.711 87.3764 143.901 87.5216C143.25 87.2128 142.559 86.9976 141.849 86.8824C140.557 86.5784 87.8779 77.675 87.2342 77.542C86.9165 77.4744 86.7797 77.9608 87.0997 78.0292ZM97.3255 102.208C97.7283 102.245 138.546 110.563 138.919 110.351L138.741 110.376C138.798 110.397 138.861 110.394 138.916 110.369C138.971 110.344 139.014 110.298 139.035 110.241C139.057 110.184 139.054 110.121 139.029 110.065C139.004 110.01 138.957 109.967 138.901 109.946C136.958 109.309 97.6766 101.877 97.3285 101.859C97.0967 101.848 97.1066 102.188 97.3255 102.208ZM88.1789 93.9846C88.5437 92.5239 88.5406 91.1529 89.116 87.7093C89.1657 87.5461 89.1702 87.3725 89.1289 87.207C88.9632 86.7836 88.3962 86.7928 88.3043 87.4106C87.9676 89.664 87.8103 91.1886 87.7198 92.4183C87.6459 92.9171 87.6479 93.4242 87.7259 93.9223C87.7472 94.1693 88.112 94.2529 88.1789 93.9846ZM92.3802 94.924C92.6621 94.6344 92.96 94.3593 93.2352 94.0644C96.5647 90.5016 96.5465 90.6672 96.7403 90.386C96.7827 90.3093 96.7991 90.2208 96.7868 90.1339C96.7745 90.0471 96.7344 89.9665 96.6723 89.9045C96.6103 89.8425 96.5298 89.8023 96.4429 89.79C96.3561 89.7778 96.2676 89.7941 96.1908 89.8366C94.6526 91.3055 93.2587 92.9185 92.0283 94.6534C91.8831 94.8594 92.2054 95.0988 92.3802 94.924ZM94.7468 98.6974C94.9505 98.7036 95.1537 98.6753 95.348 98.6138C95.9163 98.4437 96.4961 98.3149 97.083 98.2285C100.688 97.5521 100.785 97.6334 100.872 97.2846C100.893 97.2022 100.886 97.1156 100.853 97.0375C100.82 96.9593 100.763 96.8938 100.69 96.8506C100.532 96.784 100.356 96.7788 100.194 96.8362C97.5793 97.3378 96.7243 97.4746 95.7865 97.7558C94.6982 98.0833 94.7795 98.2004 94.5591 98.3744C94.5288 98.4045 94.5093 98.4438 94.5037 98.4861C94.4981 98.5285 94.5067 98.5715 94.5281 98.6084C94.5496 98.6454 94.5827 98.6741 94.6223 98.6902C94.6619 98.7063 94.7056 98.7089 94.7468 98.6974ZM129.288 67.1217C129.021 65.2924 126.729 63.9912 125.782 62.013C124.566 59.4708 125.869 57.757 125.227 55.6746C125.097 55.252 124.431 55.4321 124.562 55.8577C125.214 57.9743 123.191 60.4534 126.293 64.0657C127.246 65.1753 128.524 66.2454 128.586 67.4204C128.578 67.9483 128.45 68.4675 128.211 68.9382C127.972 69.4089 127.628 69.8186 127.206 70.1358C125.805 71.323 123.688 71.5403 121.574 72.5374C119.674 73.4327 117.975 74.7848 116.132 75.8488C112.883 77.7244 107.205 79.3691 103.947 78.2504C101.013 77.2426 100.287 74.2224 102.55 72.2464C102.746 72.3345 105.382 73.128 108.162 74.2421C108.23 74.26 108.302 74.2573 108.369 74.2344C108.436 74.2115 108.494 74.1694 108.537 74.1134C108.581 74.0573 108.606 73.9898 108.611 73.9193C108.616 73.8488 108.6 73.7784 108.565 73.717C107.926 72.4114 107.113 71.1983 106.148 70.1108L106.347 70.0036C108.105 70.3314 109.827 70.8321 111.487 71.4985C111.55 71.5157 111.617 71.5158 111.68 71.499C111.743 71.4821 111.801 71.4489 111.847 71.4026C111.894 71.3564 111.927 71.2987 111.944 71.2355C111.961 71.1722 111.96 71.1057 111.943 71.0425C111.459 69.7952 110.726 68.6593 109.789 67.7038C110.513 67.0958 109.359 67.6278 114.695 68.3225C114.761 68.3221 114.826 68.3042 114.884 68.2707C114.941 68.2372 114.989 68.1892 115.022 68.1315C115.055 68.0738 115.072 68.0084 115.072 67.9419C115.072 67.8754 115.055 67.8101 115.021 67.7525C114.426 66.5526 113.537 65.5226 112.437 64.7581C114.168 62.0928 113.762 60.2961 114.607 59.2101C116.306 57.0205 120.524 62.3702 123.271 59.2587C123.684 58.8042 123.952 58.2375 124.043 57.6303C124.133 57.0232 124.041 56.4028 123.779 55.8478C123.627 55.5568 123.108 55.7635 123.238 56.0758C123.465 56.6618 123.469 57.3108 123.249 57.8993C123.029 58.4879 122.6 58.9749 122.044 59.2678C119.552 60.5332 115.987 56.0249 113.935 58.8392C112.978 60.151 113.479 61.7272 111.797 64.3591C111.526 64.2056 111.24 64.0807 110.943 63.9867C110.862 63.9673 110.777 63.9771 110.703 64.0145C110.629 64.052 110.571 64.1145 110.538 64.191C110.506 64.2675 110.502 64.3529 110.527 64.4322C110.552 64.5114 110.604 64.5792 110.674 64.6236C110.902 64.7459 111.13 64.863 111.358 64.9884C110.915 65.5797 110.42 66.1304 109.878 66.6338C109.361 66.5441 108.831 66.5479 108.315 66.6452C108.246 66.6668 108.184 66.7078 108.138 66.7633C108.091 66.8188 108.061 66.8866 108.052 66.9585C108.042 67.0304 108.053 67.1036 108.084 67.1692C108.115 67.2349 108.164 67.2904 108.225 67.3292C108.529 67.5572 108.572 67.6012 108.649 67.6658C107.855 68.2575 107.019 68.7929 106.15 69.2679C105.784 69.2162 105.416 69.1706 105.051 69.122C104.983 69.1231 104.918 69.144 104.862 69.182C104.806 69.22 104.762 69.2735 104.737 69.336C104.711 69.3984 104.704 69.467 104.716 69.5333C104.729 69.5997 104.761 69.6609 104.808 69.7095C104.866 69.7695 104.923 69.8303 104.98 69.8904C104.03 70.3423 103.143 70.915 102.34 71.5943C99.908 73.812 100.067 76.5396 102.277 78.2063C104.439 79.8403 107.962 79.4398 110.622 78.8211C113.463 78.1432 116.145 76.9214 118.521 75.2233C123.317 72.0548 123.461 72.8209 126.171 71.608C128.62 70.512 129.504 68.5984 129.288 67.1217ZM110.883 70.4748C109.715 70.0442 108.515 69.705 107.294 69.4602C107.955 69.0691 108.593 68.6395 109.204 68.1735C109.884 68.8446 110.452 69.6218 110.883 70.4748ZM111.999 65.3828C112.8 65.9353 113.48 66.646 113.997 67.4713C112.902 67.3347 111.82 67.1134 110.76 66.8093C111.207 66.3636 111.621 65.8864 111.999 65.3813V65.3828ZM105.496 70.452C106.197 71.249 106.824 72.1078 107.37 73.0178C107.586 73.3788 107.707 73.2268 105.56 72.5618C104.711 72.2993 103.848 72.0807 102.976 71.9066C103.777 71.3574 104.62 70.8711 105.496 70.452Z" fill="#191919"/>
<path d="M125.817 68.2055C123.976 70.4718 122.057 69.7939 119.863 70.5752C115.26 72.2152 112.407 77.1712 107.258 76.7821C105.445 76.6445 103.1 76.1908 101.808 74.9026C101.664 74.7597 101.407 74.9459 101.523 75.123C101.642 75.3066 101.774 75.4818 101.917 75.6474C103.241 77.1727 107.475 77.7579 109.483 77.3384C113.631 76.4713 116.386 72.5246 120.158 71.25C122.069 70.6048 123.308 71.0342 125.047 69.8957C125.907 69.3412 126.598 68.5608 127.044 67.64C127.069 67.5233 127.087 67.405 127.097 67.2859C127.096 67.2288 127.078 67.1732 127.046 67.126C127.013 67.0789 126.968 67.0421 126.915 67.0203C126.863 66.9984 126.805 66.9924 126.748 67.003C126.692 67.0136 126.64 67.0403 126.599 67.0799C126.161 67.5937 126.24 67.6841 125.817 68.2055ZM97.1127 75.0295C96.9351 74.9306 96.7306 74.8912 96.529 74.917C95.3371 74.8895 94.1699 74.5723 93.128 73.9929C93.0938 73.9603 93.0491 73.941 93.0019 73.9385C92.9547 73.936 92.9083 73.9505 92.8708 73.9794C92.8334 74.0082 92.8076 74.0495 92.798 74.0958C92.7885 74.142 92.7958 74.1902 92.8187 74.2315C92.9203 74.3744 93.0353 74.5072 93.1622 74.6282C93.8462 75.2993 96.4477 75.8625 97.1142 75.4475C97.15 75.4256 97.1795 75.3948 97.1999 75.3581C97.2204 75.3214 97.231 75.2801 97.2308 75.2381C97.2307 75.1961 97.2197 75.1549 97.199 75.1184C97.1784 75.0818 97.1486 75.0512 97.1127 75.0295Z" fill="#191919"/>
<path d="M98.8143 72.2228C97.3422 71.0745 98.3743 71.8512 96.2303 70.3183C96.6468 69.9935 97.0499 69.6525 97.4395 69.2953C98.7243 69.3321 100.006 69.4374 101.28 69.6107C101.578 69.6449 101.718 69.2748 101.601 69.0521C101.103 68.2188 100.4 67.526 99.5599 67.0389C99.8487 66.6842 100.126 66.3184 100.391 65.9414C101.858 65.8935 103.327 65.9473 104.786 66.1026C104.851 66.1018 104.915 66.0841 104.971 66.0512C105.027 66.0182 105.074 65.9713 105.106 65.9149C105.139 65.8585 105.156 65.7946 105.156 65.7295C105.156 65.6645 105.139 65.6005 105.107 65.544C104.447 64.3208 103.507 63.2713 102.364 62.4812C103.07 60.8852 103.173 60.11 103.564 59.4169C103.798 58.9936 104.171 58.6638 104.62 58.4827C105.068 58.3016 105.566 58.2802 106.028 58.422C107.785 58.8104 109.01 60.569 110.683 60.0872C110.935 60.0139 111.168 59.8877 111.367 59.717C111.561 59.5521 111.309 59.2314 111.097 59.3659C110.885 59.4817 110.653 59.5536 110.413 59.5773C110.173 59.6009 109.931 59.5758 109.701 59.5035C108.366 59.1531 107.006 57.3915 104.849 57.735C102.774 58.0656 102.664 60.0644 101.729 62.1711C101.312 62.0076 100.868 61.9255 100.421 61.9294C100.371 61.9271 100.321 61.9351 100.274 61.9527C100.227 61.9703 100.184 61.9973 100.147 62.032C100.111 62.0667 100.082 62.1084 100.062 62.1546C100.043 62.2008 100.033 62.2505 100.033 62.3007C100.033 62.3509 100.043 62.4006 100.062 62.4468C100.082 62.4929 100.111 62.5346 100.147 62.5693C100.184 62.604 100.227 62.631 100.274 62.6486C100.321 62.6663 100.371 62.6742 100.421 62.6719C100.76 62.6643 101.097 62.7224 101.414 62.8429C101.016 63.6614 100.562 64.4519 100.056 65.2088C99.4262 65.1866 98.7973 65.2777 98.1995 65.4778C97.8058 65.6595 97.3741 66.1185 97.6454 66.5738C97.7534 66.7547 97.9236 66.8519 98.4997 67.2281C98.081 67.7045 97.6386 68.1596 97.1742 68.5916C96.7081 68.6201 96.248 68.7114 95.8062 68.8629C95.4611 68.9748 95.1394 69.1489 94.857 69.3767C94.7776 69.4611 94.728 69.5691 94.7156 69.6844C94.7033 69.7996 94.7289 69.9157 94.7886 70.015C94.8657 70.1257 94.9645 70.2196 95.0789 70.2909C94.2138 70.8264 93.4049 71.4477 92.6644 72.1453C90.6299 74.2809 91.3511 76.9204 93.4578 77.4281C94.6434 77.7146 94.6814 76.8961 94.1791 76.8353C94.2095 76.8353 93.8888 76.7798 93.8226 76.7699C93.5652 76.7365 93.3173 76.6507 93.0943 76.5177C92.8713 76.3848 92.6779 76.2075 92.5261 75.9969C92.3743 75.7864 92.2672 75.5469 92.2115 75.2933C92.1558 75.0397 92.1527 74.7774 92.2023 74.5226C92.5633 72.6606 94.0696 71.9135 95.6094 70.7849C95.8268 70.6253 95.6748 70.8609 98.5574 72.5504C98.7596 72.6644 99.0058 72.3718 98.8143 72.2228ZM92.3247 75.6352C92.3308 75.6497 92.3376 75.671 92.3247 75.6352V75.6352ZM100.522 68.7838C99.7301 68.6957 98.8052 68.5977 98.1873 68.5749C98.4944 68.2638 98.7923 67.9425 99.0811 67.6112C99.6136 67.9331 100.099 68.3278 100.522 68.7838ZM102.054 63.153C102.876 63.7084 103.563 64.44 104.065 65.2947C103.014 65.2075 101.959 65.1722 100.904 65.1891C101.326 64.534 101.71 63.8552 102.054 63.156V63.153ZM98.4822 66.1725C98.8111 66.0409 99.1631 65.9763 99.5173 65.9825C99.3471 66.2125 99.1698 66.439 98.9853 66.6619C98.296 66.2082 98.3044 66.266 98.4792 66.1725H98.4822ZM96.1756 69.4709C95.9993 69.6153 95.8204 69.7549 95.639 69.8896L95.4627 69.7635C95.6852 69.6347 95.924 69.5363 96.1726 69.4709H96.1756ZM84.5263 142.746C84.5263 142.814 84.5535 142.879 84.6018 142.928C84.6501 142.976 84.7156 143.003 84.784 143.003C84.8523 143.003 84.9178 142.976 84.9661 142.928C85.0145 142.879 85.0416 142.814 85.0416 142.746C85.2605 140.944 84.9512 131.177 84.8524 130.494C84.8358 130.437 84.7995 130.388 84.7499 130.356C84.7003 130.323 84.6408 130.31 84.5822 130.318C84.5236 130.326 84.4697 130.354 84.4305 130.399C84.3912 130.443 84.3691 130.5 84.3682 130.559C84.334 131.042 84.4746 142.248 84.5263 142.746Z" fill="#191919"/>
<path d="M106.839 116.234C104.261 115.741 101.975 115.417 100.563 115.157C100.361 115.12 100.09 115.085 99.9931 115.265C99.8677 115.502 100.084 115.696 100.354 115.746C100.528 115.778 104.833 116.461 106.282 116.599C106.303 117.258 106.377 117.913 106.504 118.56C106.103 118.694 108.152 117.716 85.072 128.939C84.5142 128.695 55.9572 123.513 55.8804 123.499C55.8717 122.836 55.8179 122.173 55.7193 121.517C56.5925 121.308 63.0305 118.312 64.0793 117.337C64.12 117.294 64.1456 117.239 64.1524 117.18C64.1591 117.121 64.1467 117.061 64.1169 117.01C64.087 116.959 64.0414 116.919 63.9869 116.895C63.9323 116.872 63.8717 116.867 63.814 116.881C63.3162 117.033 62.4202 117.57 60.4275 118.567C55.4541 121.054 55.3682 120.704 55.1599 121.701C55.0754 122.297 55.0482 122.899 55.0786 123.5C55.0789 123.557 55.0914 123.614 55.1153 123.665C55.1392 123.717 55.1739 123.763 55.2171 123.801C55.2603 123.838 55.311 123.866 55.3657 123.882C55.4205 123.898 55.4781 123.902 55.5346 123.894C55.7626 123.941 56.442 124.075 56.5568 124.097C56.4048 125.658 56.3987 134.481 56.4261 134.85C56.4171 135.018 56.4511 135.185 56.5249 135.336C56.632 135.64 56.936 135.593 57.0037 135.412C57.1263 135.184 57.1779 134.924 57.1519 134.666C57.1914 133.945 57.0409 124.269 57.0341 124.193C57.1101 124.208 84.1167 129.361 84.9322 129.395C85.3623 129.413 105.339 119.72 105.417 119.681C105.331 121.153 105.608 132.539 105.622 132.655C105.774 133.979 106.14 133.204 103.369 135.13C83.5467 148.903 85.357 148.006 84.7186 147.837C84.6426 147.817 61.6237 142.739 61.5477 142.73C61.1277 142.662 60.7038 142.619 60.2785 142.602C60.0407 142.581 60.0004 142.951 60.223 143.012C60.8158 143.17 61.211 143.325 61.3387 143.357C61.4147 143.377 84.1729 148.569 85.0317 148.619C85.1495 148.625 105.67 134.359 106.053 133.999C106.255 133.864 106.053 133.966 106.146 132.647C106.182 132.144 106.034 121.836 106.024 121.405C106.024 120.755 105.965 120.107 105.847 119.467C106.195 119.323 106.523 119.134 106.824 118.906C107.236 118.604 107.049 116.274 106.839 116.234Z" fill="#191919"/>
<path d="M72.9546 124.28C81.9127 125.891 83.5034 126.351 84.6137 126.369C84.6464 126.369 94.1548 122.056 94.5697 121.792C94.857 121.611 94.987 121.558 95.0668 121.331C95.0792 121.283 95.0724 121.231 95.0477 121.188C95.023 121.145 94.9824 121.112 94.9345 121.098C94.7405 121.062 94.5399 121.095 94.3676 121.191C94.2916 121.22 84.901 125.529 84.6008 125.737C84.5248 125.717 72.988 123.594 72.8124 123.616C72.726 123.631 72.6405 123.651 72.5563 123.676C72.3374 123.728 72.2189 124.147 72.9546 124.28Z" fill="#191919"/>
<path d="M37.1707 141.54C36.151 140.417 35.0415 139.379 33.8533 138.435C33.275 137.97 32.9125 138.494 32.3744 139.08C31.9954 139.56 31.6493 140.066 31.3385 140.593C31.161 140.839 30.9978 141.095 30.8498 141.36C30.8255 141.399 30.8164 141.446 30.8244 141.491C30.8324 141.536 30.8569 141.577 30.8931 141.605C30.9294 141.634 30.9748 141.648 31.0207 141.644C31.0666 141.641 31.1097 141.621 31.1417 141.588C31.525 141.167 31.9463 140.782 32.4002 140.438C32.7422 140.206 33.0692 139.952 33.3791 139.678C33.8875 140.19 36.0703 142.211 36.5521 142.349C36.6874 142.367 36.9412 142.489 37.151 142.261C37.2262 142.184 37.2744 142.085 37.2881 141.979C37.3019 141.873 37.2804 141.765 37.227 141.672C37.2414 141.74 37.2521 141.734 37.1707 141.54ZM47.3319 141.17C48.231 141.463 49.2167 141.741 50.2412 141.984C50.4259 141.803 50.6083 141.618 50.8051 141.452C54.7237 138.133 54.6447 138.514 54.4037 138.328C53.7763 137.855 53.1404 137.393 52.4961 136.942C52.0234 137.316 47.7629 140.836 47.3319 141.17ZM76.1679 107.647C75.1481 106.524 74.0386 105.486 72.8505 104.543C72.2721 104.077 71.9096 104.6 71.3723 105.187C70.9929 105.667 70.6465 106.172 70.3356 106.699C70.1581 106.946 69.9949 107.203 69.8469 107.469C69.8243 107.508 69.8166 107.553 69.8252 107.598C69.8338 107.642 69.8581 107.682 69.8936 107.71C69.9292 107.737 69.9736 107.751 70.0186 107.749C70.0637 107.747 70.1064 107.728 70.1388 107.697C70.5221 107.275 70.9434 106.891 71.3973 106.547C71.7395 106.314 72.0664 106.061 72.3762 105.787C72.8847 106.299 75.0674 108.32 75.5492 108.457C75.6845 108.476 75.9383 108.597 76.1481 108.368C76.2232 108.292 76.2713 108.193 76.2851 108.087C76.2988 107.98 76.2774 107.872 76.2241 107.779C76.2385 107.844 76.2492 107.844 76.1679 107.647ZM83.267 106.129C84.0777 106.474 84.898 106.789 85.7279 107.075C86.8405 105.908 89.6373 103.634 90.8959 102.628C90.222 102.155 89.5328 101.705 88.8294 101.278C87.675 102.296 84.3675 105.198 83.267 106.129ZM86.3283 107.276C87.2274 107.57 88.2131 107.849 89.2376 108.091C89.4223 107.909 89.6046 107.725 89.8015 107.559C93.72 104.24 93.641 104.622 93.4001 104.436C92.7727 103.962 92.1368 103.5 91.4925 103.05C91.0175 103.425 86.7706 106.932 86.3283 107.276Z" fill="#FF6347"/>
<path d="M21.6173 124.145C21.7997 124.487 21.9786 124.83 22.1539 125.174C22.3287 125.519 22.5422 125.845 22.7338 126.179C24.2743 128.863 24.237 129.309 24.7371 129.174C24.8398 129.145 24.9274 129.078 24.9818 128.986C25.1468 128.703 24.9104 128.394 24.6702 127.948C23.9362 126.486 23.0527 125.103 22.0338 123.823C21.8628 123.602 21.46 123.853 21.6173 124.145ZM14.4779 129.248C14.8188 129.537 15.1928 129.785 15.592 129.986C20.228 132.591 20.2425 132.7 20.5845 132.494C20.8125 132.359 20.8398 131.998 20.2151 131.663C15.5487 129.155 15.0471 128.916 14.7036 128.862C14.6547 128.849 14.6029 128.853 14.5563 128.873C14.5097 128.892 14.4706 128.926 14.4451 128.97C14.4196 129.013 14.409 129.064 14.4149 129.114C14.4208 129.164 14.4429 129.211 14.4779 129.248ZM12.7664 137.434C13.7766 137.541 14.7951 137.546 15.8064 137.45C16.3589 137.408 20.111 137.044 20.4538 136.656C20.5092 136.6 20.5471 136.529 20.5628 136.451C20.5786 136.374 20.5716 136.293 20.5427 136.22C20.5137 136.146 20.4641 136.082 20.3998 136.036C20.3355 135.99 20.2592 135.964 20.1802 135.96C20.0145 135.938 18.7681 136.202 17.6326 136.368C16.4812 136.537 12.8446 136.906 12.7686 136.913C12.6995 136.912 12.6331 136.939 12.584 136.988C12.5349 137.037 12.5071 137.103 12.5068 137.172C12.5065 137.241 12.5337 137.308 12.5824 137.357C12.631 137.406 12.6972 137.434 12.7664 137.434ZM82.0176 73.8105C80.9148 60.7544 79.5316 58.7062 72.0828 56.5091C69.489 55.7445 66.8525 55.1274 64.1971 54.6167C58.3293 53.5327 52.4051 52.7806 46.4526 52.364C46.4526 52.0213 46.4526 51.68 46.4594 51.3357C48.1436 51.9901 50.0459 51.2172 51.6768 50.7072C53.3979 50.1734 55.0457 49.4269 56.5819 48.485C60.8075 45.8843 67.1497 39.4896 69.4137 36.7757C69.59 36.5545 69.5498 36.4435 69.3377 36.1418C69.6327 35.9199 69.9684 35.7583 70.3257 35.6661C71.3137 35.3833 74.3819 34.9555 75.4056 34.8301C76.481 34.6948 77.6529 34.5169 78.4083 33.6536C79.6806 32.2012 78.6979 30.4471 76.918 30.0322C76.279 29.9011 75.6211 29.8913 74.9784 30.0033C74.9171 30.0033 74.8582 30.0277 74.8148 30.0711C74.7714 30.1145 74.747 30.1733 74.747 30.2347C74.747 30.2961 74.7714 30.355 74.8148 30.3984C74.8582 30.4418 74.9171 30.4661 74.9784 30.4661C76.1466 30.5817 77.2197 30.6265 77.9067 31.4473C78.0286 31.6124 78.1116 31.8029 78.1495 32.0046C78.1875 32.2063 78.1794 32.414 78.126 32.6121C78.0725 32.8102 77.975 32.9937 77.8407 33.1489C77.7064 33.3041 77.5388 33.427 77.3504 33.5084C76.4491 34.0556 75.5059 33.9317 71.7538 34.5724C70.7397 34.6496 69.7581 34.9647 68.8886 35.492C68.0991 34.2061 67.46 32.8336 66.984 31.4017C66.3076 29.5367 66.3266 29.3155 66.0591 28.9484C65.5172 28.2059 64.4768 28.7265 63.7738 28.9271C58.0048 30.5811 52.415 32.8057 47.0872 35.568C46.3821 33.5569 45.5688 31.5853 44.6506 29.6621C42.8631 25.9267 40.8096 22.3569 36.8059 21.1972C33.7028 20.2973 30.444 21.0254 27.5924 22.5735C27.2124 22.7787 26.8416 22.9969 26.4654 23.2089C26.3491 22.5705 26.3939 22.7704 26.3605 22.5614C30.8787 22.0218 30.5116 17.1912 29.763 12.7209C30.4948 12.3982 31.1972 12.0124 31.8621 11.568C33.2894 10.5268 34.9158 9.14813 33.7188 7.79989C33.0409 7.03989 31.9472 7.10145 30.9744 7.26789C29.2926 1.43869 21.71 -1.47211 17.3818 2.78389C14.5843 5.53889 14.3814 9.83821 16.1035 13.1853C16.1751 13.3479 16.2665 13.501 16.3756 13.6413C16.3807 13.6991 16.4009 13.7546 16.4343 13.8021C16.4676 13.8496 16.5129 13.8874 16.5656 13.9118C14.9149 15.3102 15.6004 17.9398 17.4723 18.2438C18.6229 18.4338 18.2247 17.879 18.2923 18.6763C18.4166 20.139 18.336 21.6119 18.0529 23.0523C17.3248 22.7385 16.5709 22.4185 15.8208 22.1487C12.7565 21.0513 9.51281 20.9167 7.21913 23.2127C4.76965 25.6675 3.01861 31.483 2.14841 34.8316C0.569886 40.9009 -1.08767 47.88 1.01601 53.8316C2.96693 59.3492 7.82941 63.0967 12.9412 65.9156C15.6345 67.4354 18.5122 68.6025 21.5033 69.388C21.8392 73.3674 22.4153 77.3308 22.9116 81.2934C25.0274 98.1973 26.5087 114.651 31.3104 129.758C31.451 130.199 31.8857 130.077 32.2018 130.024C32.1593 130.342 32.1357 131.972 32.1403 132.292C32.1449 132.399 32.1904 132.5 32.2673 132.573C32.3443 132.647 32.4468 132.688 32.5533 132.688C32.6599 132.688 32.7624 132.647 32.8394 132.573C32.9163 132.5 32.9618 132.399 32.9664 132.292C32.9664 132.064 32.9542 130.24 32.8866 129.911C38.1466 129.047 37.3881 129.195 37.6746 129.128C37.924 130.241 38.2859 131.326 38.7546 132.366C38.8046 132.437 38.8773 132.489 38.9606 132.512C39.044 132.536 39.133 132.531 39.2128 132.497C39.2927 132.463 39.3586 132.403 39.3997 132.327C39.4407 132.251 39.4545 132.163 39.4386 132.077C39.0017 131.043 38.6244 129.984 38.3084 128.907C38.5846 128.747 38.8216 128.528 39.0019 128.265C39.1822 128.002 39.3013 127.702 39.3504 127.387C39.6716 125.964 39.8707 124.517 39.9455 123.061C41.7892 97.5741 40.6181 87.7633 40.5421 82.7412C40.4843 78.9078 40.7921 74.3721 42.531 70.9156C43.2348 69.5157 44.1308 69.9162 45.8826 70.1701L65.9291 73.0953C66.4333 79.5841 67.7072 85.9901 69.7238 92.1781C70.3234 94.0281 71.0161 95.8466 71.7994 97.6266C71.8592 97.7709 71.9524 97.899 72.0713 98.0003C72.1902 98.1016 72.3314 98.1733 72.4834 98.2095C72.4279 98.3577 72.4553 98.2338 72.358 98.8897C72.2607 99.5456 72.8998 99.6018 73.042 99.1975C73.1057 98.9059 73.128 98.6068 73.1081 98.3091C73.8111 98.3455 77.5921 97.9519 78.1796 97.8531C78.0078 99.1542 78.957 98.8783 78.9274 98.4459C78.9152 98.2794 78.7936 97.9937 78.7754 97.7315C79.4207 97.5491 79.6114 97.1402 79.7816 96.498C81.9955 88.2117 83.0337 85.8215 82.0176 73.8105ZM40.3886 32.034C43.063 35.6227 45.7253 41.9292 46.6076 48.6925C46.6454 49.0048 46.6351 49.3211 46.5773 49.6303C46.5755 49.6906 46.5524 49.7483 46.5121 49.7932C46.4718 49.838 46.4168 49.8671 46.357 49.8752C46.2973 49.8834 46.2365 49.87 46.1857 49.8375C46.1349 49.805 46.0972 49.7556 46.0794 49.6979C46.0293 49.5338 45.9533 49.3818 45.91 49.2161C45.409 45.633 44.4908 42.1207 43.174 38.7509C42.2423 36.5273 41.1922 34.3551 40.0283 32.2438C40.0146 32.2201 40.0056 32.194 40.0019 32.1669C39.9982 32.1397 39.9999 32.1122 40.0069 32.0857C40.0139 32.0592 40.026 32.0344 40.0426 32.0126C40.0592 31.9908 40.0799 31.9725 40.1036 31.9588C40.1272 31.945 40.1534 31.936 40.1805 31.9324C40.2076 31.9287 40.2352 31.9304 40.2617 31.9374C40.2881 31.9444 40.3129 31.9565 40.3347 31.9731C40.3565 31.9897 40.3748 32.0104 40.3886 32.034ZM26.4175 20.4661C25.6301 20.9753 25.054 20.8096 24.7288 20.3065C24.6368 20.1755 24.5766 20.0249 24.5528 19.8666C24.5291 19.7083 24.5425 19.5467 24.592 19.3945C24.5991 19.37 24.6133 19.3481 24.6327 19.3315C24.652 19.3149 24.6758 19.3043 24.7011 19.301C24.7264 19.2977 24.7521 19.3019 24.7751 19.3129C24.7981 19.324 24.8174 19.3415 24.8306 19.3633C24.8815 19.4834 24.9446 19.5959 24.9948 19.7159C25.0966 19.9629 25.2228 20.2662 25.567 20.2555C26.023 20.2411 26.5687 19.6863 26.6744 19.5951C26.954 19.3489 27.3812 19.8489 26.4175 20.4661ZM25.8794 23.5213C23.2764 24.8725 21.5368 24.4173 18.7582 23.3898C18.8166 23.1795 18.8605 22.9654 18.8897 22.7491C18.9991 22.1077 18.4709 23.1078 25.7943 22.6138C25.8133 22.9619 25.8414 23.2226 25.8794 23.5213ZM17.128 4.15265C20.6825 -0.643706 28.1898 1.45009 30.2213 7.42749C27.7756 8.01041 17.7033 12.616 17.4715 12.8744C17.188 13.0082 17.0854 13.0454 16.7746 13.2157C15.396 10.1764 15.1414 6.88637 17.128 4.15265ZM17.4723 17.518C17.125 17.4183 16.8246 17.1982 16.6249 16.8971C16.4676 16.6483 16.3689 16.3671 16.3359 16.0746C16.303 15.7821 16.3369 15.486 16.4349 15.2084C16.5329 14.9309 16.6926 14.6792 16.9019 14.4723C17.1112 14.2653 17.3647 14.1085 17.6433 14.0137C18.3336 14.2308 18.9151 14.7033 19.2689 15.3345C19.3183 15.4148 19.3948 15.4747 19.4845 15.5033C19.5742 15.532 19.6713 15.5275 19.758 15.4907C19.8447 15.4539 19.9154 15.3873 19.9571 15.3028C19.9989 15.2184 20.009 15.1218 19.9856 15.0305C19.7466 14.3075 19.6566 13.5435 19.7211 12.7847C19.7333 12.5879 19.0478 12.9785 26.0892 9.78957C27.4283 9.18157 31.2572 7.40165 32.7506 8.02865C33.392 8.29769 33.5767 8.85021 33.0416 9.53877C32.0218 10.545 30.8899 11.4309 29.668 12.179C29.5377 11.4649 29.3843 10.7552 29.2082 10.051C29.1817 9.84309 29.1053 9.64466 28.9855 9.47265C28.962 9.43539 28.9271 9.40665 28.8861 9.39067C28.845 9.37469 28.7999 9.37231 28.7573 9.38388C28.7148 9.39545 28.6771 9.42036 28.6498 9.45494C28.6224 9.48952 28.6069 9.53196 28.6055 9.57601C28.6952 10.4544 28.836 11.3269 29.0273 12.1889C28.8396 12.0654 28.6252 11.9882 28.4018 11.9638C28.1784 11.9394 27.9524 11.9684 27.7424 12.0485C27.5324 12.1286 27.3445 12.2575 27.1941 12.4244C27.0436 12.5914 26.9351 12.7918 26.8773 13.0089C26.6234 12.9898 26.3682 13.0021 26.1173 13.0454C25.8683 12.5662 25.5599 12.1204 25.1992 11.7185C25.0753 11.5915 24.8101 11.7185 24.883 11.9031C25.0696 12.3474 25.2925 12.7755 25.5496 13.183C25.1452 13.3198 24.7727 13.5369 24.4544 13.8214C24.3364 13.6242 24.1687 13.4614 23.968 13.3494C22.7224 12.6593 21.4197 14.1619 21.9677 15.3315C22.4336 16.3256 24.7326 16.7094 24.6672 14.5373C24.6588 14.2774 24.6125 14.3853 24.7067 14.3047C25.037 14.0336 25.4273 13.8454 25.8452 13.756C26.3466 14.6823 26.7785 15.6446 27.1372 16.6349C26.7363 16.6389 26.337 16.5833 25.9524 16.47C25.8717 16.4478 25.7856 16.4586 25.7129 16.4999C25.6402 16.5412 25.5869 16.6097 25.5648 16.6904C25.5426 16.771 25.5534 16.8571 25.5947 16.9298C25.636 17.0025 25.7045 17.0558 25.7852 17.078C26.3037 17.217 26.8419 17.2684 27.3774 17.23C27.446 17.2172 27.5111 17.19 27.5684 17.1501C27.6257 17.1103 27.6739 17.0588 27.7098 16.9989C27.7457 16.9391 27.7686 16.8723 27.7767 16.803C27.7849 16.7337 27.7783 16.6635 27.7574 16.5969C27.3967 15.6015 26.965 14.6332 26.4654 13.6998C26.5538 13.6947 26.6424 13.6993 26.7298 13.7135C26.9145 13.7271 26.7352 13.6861 26.9244 14.0889C27.0389 14.2913 27.1978 14.4651 27.3892 14.5971C27.5806 14.7292 27.7995 14.816 28.0294 14.8512C28.2592 14.8863 28.4941 14.8688 28.7162 14.7999C28.9383 14.7311 29.1419 14.6127 29.3116 14.4537C29.4073 15.3839 29.4978 16.492 29.4947 17.4268C28.9931 17.2672 26.1994 18.8708 19.8473 17.4063C19.6659 17.3469 19.4742 17.3252 19.2841 17.3425C19.0364 16.8485 18.461 17.7787 17.4723 17.518ZM12.8834 52.212C12.9955 51.905 12.9816 51.5661 12.8448 51.2692C12.708 50.9723 12.4593 50.7416 12.153 50.6274C12.0569 50.5982 11.9756 50.5332 11.9259 50.4458C11.8763 50.3584 11.8621 50.2553 11.8863 50.1577C12.2944 47.4134 13.4063 41.1061 13.6723 40.451C13.8114 40.1083 13.844 39.821 14.1161 39.8537C14.7583 39.9297 13.9938 41.3182 12.6721 50.0202C13.057 50.2355 13.3619 50.5695 13.5415 50.9723C13.7211 51.3751 13.7656 51.8252 13.6685 52.2553C18.3919 52.9568 22.5681 55.4473 26.346 58.3635C26.821 58.7298 26.2837 59.2831 25.9546 59.03C15.6247 51.0477 11.941 54.0535 12.8834 52.212ZM81.1998 86.9889C80.8692 89.1571 80.2498 91.2221 79.0832 95.7615C78.8666 96.6105 78.9236 96.862 78.3734 96.9707C76.7129 97.2407 75.038 97.4132 73.3574 97.4875C73.0893 97.5218 72.8171 97.4766 72.5746 97.3575C72.5533 97.3416 72.5487 97.3385 72.5464 97.3135C69.3732 89.4574 67.4321 81.1585 66.7917 72.71C66.7905 72.6121 66.7579 72.5173 66.6986 72.4394C66.6394 72.3615 66.5566 72.3048 66.4626 72.2775L45.8773 69.2831C44.5222 69.0863 43.1033 68.6675 42.1677 69.8357C41.8019 70.3513 41.5129 70.9173 41.3097 71.516C38.5349 78.356 40.0815 86.143 40.115 96.6652C40.134 102.284 39.507 121.897 38.6755 126.297C38.6522 126.902 38.451 127.487 38.0972 127.979C37.7932 128.253 37.8084 128.192 32.0704 129.125C29.8271 121.731 28.1545 114.175 27.0673 106.525C26.4661 102.621 22.1774 69.8531 22.1273 69.5423C23.8015 69.9584 25.5225 70.1561 27.2474 70.1305C26.7057 71.0345 26.0545 71.8682 25.3086 72.6127C24.9849 72.9319 24.785 73.0505 24.8124 73.2891C24.8151 73.3707 24.8433 73.4494 24.893 73.5142C24.9428 73.5789 25.0116 73.6265 25.0898 73.6501C25.3824 73.7139 25.5344 73.5338 25.8148 73.2587C26.8678 72.2274 27.7184 71.0082 28.3228 69.6639C29.6429 68.2731 30.2806 63.4463 27.385 60.0727C28.5379 57.9401 30.789 56.4247 32.9246 55.4207C38.5767 52.7676 45.7686 53.3057 46.2786 52.9325C49.4219 53.5405 59.3506 54.0489 69.2002 56.5805C76.6094 58.4805 79.1091 59.3841 80.3258 67.0434C81.1808 72.4227 81.956 82.0261 81.1998 86.9866V86.9889ZM141.952 92.4061C141.77 92.4137 141.812 92.5224 141.912 92.2207C142.08 91.7145 142.02 91.2973 141.959 88.9124C141.956 88.8355 141.933 88.7608 141.892 88.6958C141.084 88.5963 140.828 88.537 135.074 87.5353C135.023 87.6781 134.932 87.8034 134.812 87.896C134.692 87.9887 134.548 88.045 134.397 88.0582C133.826 88.1342 133.257 87.6379 132.867 87.2891C132.551 87.0086 133.076 87.2176 129.281 86.5291C126.258 87.9085 124.182 94.8997 120.951 98.4611C119.707 99.8336 118.504 100.907 118.913 103.077C119.271 104.971 120.775 105.927 122.653 106.25C126.619 106.934 130.214 104.913 133.338 102.419C135.01 101.082 139.656 97.052 140.267 96.4509C141.294 95.4408 142.273 94.2583 142.35 92.8029C142.349 92.6976 142.307 92.597 142.233 92.5227C142.158 92.4484 142.057 92.4065 141.952 92.4061ZM127.968 89.9741C128.307 89.9048 128.656 89.8988 128.998 89.9567C129.687 90.0627 130.342 90.3307 130.908 90.7387C131.472 91.1468 131.556 91.2791 131.639 91.5534C131.7 91.751 131.481 91.8726 131.319 91.7997C131.155 91.7355 131.01 91.631 130.897 91.4957C130.094 90.7918 129.08 90.3743 128.014 90.3085C127.835 90.2941 127.767 89.9992 127.969 89.9703L127.968 89.9741ZM126.078 93.2573C127.623 92.717 130.176 94.0455 129.802 94.5372V94.5281C129.547 94.9985 129.094 94.1769 127.797 93.8091C127.342 93.6904 126.875 93.6261 126.405 93.6176C126.272 93.61 126.053 93.6358 125.958 93.5233C125.874 93.4207 125.94 93.23 126.079 93.252L126.078 93.2573ZM124.385 96.2745C124.908 96.0733 125.472 96.0061 126.027 96.0791C126.582 96.1521 127.11 96.363 127.563 96.6925C127.875 96.8703 128.166 97.0847 128.428 97.3309C128.471 97.3768 128.496 97.4364 128.499 97.4993C128.502 97.5621 128.483 97.624 128.444 97.6738C128.406 97.7236 128.351 97.758 128.289 97.771C128.228 97.7839 128.164 97.7745 128.109 97.7444C126.942 97.1052 126.496 96.4387 124.461 96.5603C124.425 96.5626 124.39 96.5524 124.361 96.5315C124.333 96.5107 124.312 96.4805 124.304 96.4461C124.295 96.4118 124.298 96.3754 124.314 96.3434C124.329 96.3114 124.355 96.2857 124.387 96.2707L124.385 96.2745ZM119.859 101.272C119.908 100.588 120.754 99.7911 121.484 98.9809C122.077 98.7806 122.704 98.7085 123.327 98.7694C123.949 98.8303 124.551 99.0229 125.093 99.3343C125.838 99.6245 126.462 100.158 126.866 100.847C127.27 101.537 127.429 102.343 127.318 103.134C125.174 104.207 119.673 103.916 119.861 101.268L119.859 101.272ZM126.905 103.336C126.896 103.338 126.888 103.341 126.88 103.345C126.83 103.365 126.88 103.344 126.906 103.332L126.905 103.336ZM141.54 92.9853C141.54 93.0027 141.54 93.0248 141.54 92.9853V92.9853ZM141.54 92.9632C141.348 94.4999 139.649 95.9827 138.463 97.0064C133.487 101.302 130.483 104.226 126.656 105.258C123.89 106.001 120.18 105.714 119.641 102.842C120.879 104.492 123.869 104.604 125.959 104.296C126.893 104.159 127.029 104.197 128.875 103.121C130.986 101.905 133.007 100.539 134.922 99.0333C135.004 98.9649 138.864 95.7152 140.332 94.2256C141.699 92.8409 141.556 92.7557 141.54 92.9632Z" fill="#191919"/>
<path d="M115.885 84.2726C113.575 86.6461 112.056 90.8725 110.099 93.8273C108.883 95.6688 107.072 97.3461 106.944 99.6854C106.858 100.682 107.171 101.672 107.814 102.438C108.622 103.315 109.872 103.46 110.991 103.598C113.271 103.881 116.272 103.704 117.82 102.022C117.877 101.963 117.91 101.886 117.914 101.804C117.918 101.722 117.893 101.642 117.843 101.577C117.794 101.512 117.722 101.468 117.642 101.451C117.562 101.434 117.479 101.447 117.407 101.486C116.246 102.409 114.812 102.92 113.329 102.938C112.158 102.996 109.448 102.884 108.545 101.999C108.195 101.646 107.958 101.196 107.867 100.707C109.924 102.162 112.509 102.02 114.916 101.21C123.191 98.4246 119.78 95.0851 128.596 86.4097C114.832 83.9846 115.987 84.167 115.885 84.2726ZM115.949 99.9879C114.249 100.824 112.348 101.164 110.464 100.969C109.493 100.839 108.574 100.458 107.796 99.864C107.823 98.4512 108.637 97.2709 109.53 96.0845C110.018 95.8409 110.545 95.6836 111.087 95.6194C111.7 95.5539 112.32 95.618 112.906 95.8076C113.493 95.9973 114.033 96.3082 114.491 96.7202C114.95 97.1322 115.316 97.636 115.568 98.199C115.819 98.762 115.948 99.3715 115.949 99.9879ZM113.268 95.9044C113.284 95.9113 113.306 95.9189 113.268 95.9044V95.9044ZM116.326 94.0318C115.739 94.0751 115.309 92.9678 112.481 93.1456C112.333 93.1547 112.261 92.9176 112.405 92.8568C113.104 92.5371 113.895 92.4831 114.631 92.7048C116.384 93.1 116.734 94.0014 116.325 94.0318H116.326ZM117.94 91.5451C117.602 91.5724 117.527 91.0822 115.999 90.7091C115.277 90.5746 114.547 90.4883 113.813 90.4507C113.786 90.4413 113.763 90.4248 113.745 90.403C113.728 90.3811 113.716 90.3548 113.713 90.3269C113.709 90.299 113.713 90.2707 113.725 90.245C113.736 90.2194 113.755 90.1974 113.778 90.1816C114.678 89.7629 116.4 90.1109 117.377 90.5479C118.3 90.9606 118.237 91.5207 117.94 91.5451H117.94ZM118.738 88.2611C118.43 88.309 118.289 88.2163 117.855 88.0437C117.077 87.6519 116.189 87.54 115.339 87.7268C115.3 87.7265 115.263 87.7122 115.234 87.6866C115.205 87.6609 115.186 87.6257 115.181 87.5872C115.175 87.5488 115.184 87.5097 115.206 87.4773C115.227 87.4449 115.259 87.4212 115.296 87.4107C115.72 87.2142 116.183 87.1188 116.65 87.132C117.117 87.1452 117.574 87.2666 117.986 87.4867C118.3 87.5566 118.591 87.7076 118.829 87.9244C118.909 88.027 118.906 88.236 118.74 88.2611H118.738Z" fill="#191919"/>
<path d="M99.3099 113.98C98.8389 113.206 98.1166 112.618 97.2639 112.314C96.8437 112.224 96.8893 112.321 96.909 112.198C97.2183 110.32 96.4956 107.899 94.9155 107.239C94.7438 107.163 94.7635 107.239 94.7833 107.153C94.8637 106.761 94.8381 106.354 94.7091 105.974C94.5801 105.595 94.3523 105.257 94.0491 104.995C93.9731 105.057 90.3107 107.988 89.9269 108.247C91.3565 108.56 93.0269 108.919 94.1829 108.019C94.5887 107.703 94.3744 107.699 94.5842 107.821C95.6033 108.417 96.5161 110.309 96.051 112.338C94.3113 112.681 94.759 113.174 88.0892 113.154C79.3903 113.13 79.3979 111.541 75.7331 111.309C72.6597 111.114 69.1614 112.241 66.4938 110.473C66.6234 109.036 67.0136 107.634 67.6452 106.337C68.8232 103.337 68.4052 102.792 68.8019 101.199C68.8655 100.728 69.0676 100.287 69.3824 99.9309C69.6973 99.5749 70.1108 99.3205 70.5705 99.1998C72.5161 99.0341 73.5907 101.677 76.1048 101.31C77.7874 101.065 78.4767 99.3153 79.7224 99.5342C79.9914 99.5813 79.8371 99.4916 79.2352 100.079C78.0595 101.227 78.4859 102.79 79.4967 103.86C79.6281 103.737 83.9168 99.8154 83.9951 99.7455C84.1266 99.9455 84.2846 100.127 84.4648 100.284C84.3318 100.401 80.0005 104.218 79.9352 104.274C80.7373 104.902 81.6186 105.421 82.5564 105.819C83.1827 105.277 80.5439 107.567 88.1455 100.879C87.6818 100.618 87.208 100.377 86.725 100.154C87.5428 99.3799 88.473 98.3083 88.4639 97.1812C88.454 96.251 87.7738 95.6354 87.0602 95.8573C86.7777 95.9857 86.5251 96.1716 86.3185 96.4031C86.1118 96.6345 85.9557 96.9066 85.8601 97.2018C85.8206 96.844 85.761 96.4888 85.6815 96.1378C85.2362 94.2142 83.4228 94.3898 83.0383 95.776C82.8931 96.9002 83.0879 98.0422 83.5976 99.0546C83.2153 98.9665 82.8232 98.9274 82.431 98.9384C81.84 98.8036 81.2212 98.8655 80.6686 99.1147C79.0802 98.135 78.1005 99.2842 77.0464 100.043C75.1122 101.434 73.7397 99.5707 72.32 98.816C71.9735 98.5866 71.5789 98.4403 71.1666 98.3885C70.7544 98.3366 70.3358 98.3807 69.9433 98.5171C69.5509 98.6535 69.1952 98.8787 68.9041 99.1751C68.6129 99.4714 68.3941 99.831 68.2646 100.226C67.9142 101.294 67.7027 102.403 67.6353 103.525C67.288 105.648 65.9785 107.58 65.7034 109.789C65.4108 109.751 62.9446 111.25 62.535 114.121C62.4286 114.869 62.5076 115.357 63.1924 115.731C64.3126 116.343 66.2012 116.469 67.4628 116.546C71.5265 116.795 73.9905 117.219 75.4785 115.809C76.4103 116.978 78.077 117.158 79.4837 117.227C83.824 117.44 88.1736 117.361 92.5033 116.992C95.5927 116.736 100.989 116.412 99.3099 113.98ZM85.9012 99.3799C86.0372 98.6686 86.6521 96.6888 87.3087 96.5459L87.3938 96.5413C87.5034 96.5914 87.595 96.674 87.6562 96.7778C87.7174 96.8817 87.7452 97.0018 87.7358 97.122C87.7541 98.1274 86.7478 99.1641 85.9992 99.8367C85.8153 99.7622 85.8624 99.8701 85.9012 99.3799ZM84.2406 95.4446C84.3581 95.4345 84.4748 95.4714 84.5651 95.5472C85.2643 96.0131 85.2354 98.8494 85.1115 99.706L84.9269 99.8739C83.986 98.876 83.0261 95.8186 84.2406 95.4446ZM96.1376 111.881C96.1376 111.851 96.1376 111.864 96.1376 111.881V111.881ZM44.2699 140.023C45.0806 140.367 45.9009 140.682 46.7308 140.968C47.8434 139.801 50.6402 137.527 51.8988 136.522C51.2248 136.049 50.5353 135.598 49.8316 135.171C48.6566 136.207 45.3704 139.092 44.2699 140.023Z" fill="#FF6347"/>
<path d="M60.3127 147.872C59.8413 147.1 59.1192 146.512 58.2668 146.207C57.8465 146.117 57.8921 146.215 57.9119 146.092C58.2197 144.222 57.503 141.794 55.9184 141.132C55.7467 141.06 55.7664 141.132 55.7854 141.047C55.8663 140.654 55.8409 140.247 55.712 139.868C55.5831 139.489 55.3553 139.15 55.052 138.888C54.976 138.95 51.3136 141.881 50.9298 142.141C52.3563 142.452 54.0283 142.814 55.1858 141.913C55.5916 141.596 55.3773 141.592 55.5871 141.715C56.6184 142.318 57.5159 144.215 57.0539 146.231C55.3142 146.574 55.7619 147.067 49.0913 147.047C40.3931 147.023 40.4007 145.434 36.736 145.203C33.6626 145.007 30.1643 146.134 27.4967 144.367C27.6259 142.929 28.0158 141.527 28.6473 140.23C29.8261 137.23 29.4073 136.686 29.8041 135.093C29.8676 134.622 30.0696 134.18 30.3845 133.824C30.6993 133.468 31.1128 133.214 31.5726 133.093C33.5182 132.927 34.5928 135.57 37.1077 135.203C38.7895 134.958 39.4796 133.209 40.7245 133.427C40.9943 133.474 40.84 133.385 40.2381 133.972C39.0624 135.12 39.4903 136.684 40.4988 137.754C40.631 137.631 44.9197 133.708 44.998 133.638C45.1294 133.838 45.2872 134.02 45.4669 134.178C45.3347 134.295 41.0034 138.111 40.9381 138.167C41.7401 138.795 42.6215 139.315 43.5593 139.712C44.1878 139.167 41.5423 141.466 49.1476 134.772C48.6749 134.508 48.2128 134.271 47.7271 134.048C48.5457 133.274 49.4789 132.203 49.4668 131.076C49.4516 129.676 47.8769 128.856 46.8623 131.096C46.8232 130.738 46.7636 130.383 46.6837 130.032C46.2391 128.108 44.4257 128.284 44.0411 129.67C43.8956 130.794 44.0904 131.936 44.6005 132.948C44.2181 132.861 43.8261 132.821 43.4339 132.832C42.8429 132.698 42.2242 132.76 41.6715 133.008C39.054 131.395 38.5167 135.238 35.7526 134.256C35.0526 134.006 34.1406 133.145 33.3206 132.71C32.9742 132.48 32.5795 132.334 32.1672 132.282C31.755 132.23 31.3364 132.274 30.9439 132.411C30.5515 132.547 30.1958 132.772 29.9047 133.069C29.6135 133.365 29.3947 133.725 29.2652 134.119C28.9143 135.188 28.7028 136.297 28.6359 137.419C28.2886 139.541 26.9791 141.474 26.704 143.683C26.4114 143.645 23.9452 145.145 23.5356 148.015C23.4292 148.762 23.5082 149.251 24.193 149.625C25.3125 150.233 27.2018 150.362 28.4627 150.439C32.5271 150.689 34.9911 151.112 36.4784 149.703C37.4101 150.871 39.0776 151.051 40.4843 151.12C44.8246 151.333 49.1742 151.254 53.5039 150.885C56.5956 150.626 61.9916 150.304 60.3127 147.872ZM46.9048 133.274C47.0454 132.539 47.6511 130.502 48.3967 130.434C48.4576 130.453 48.5133 130.485 48.5593 130.529C48.6053 130.573 48.6402 130.627 48.6612 130.687C49.0784 131.682 47.8039 133.009 47.0021 133.727C46.8212 133.657 46.863 133.76 46.9048 133.274ZM45.2435 129.338C45.361 129.328 45.4777 129.365 45.568 129.441C46.2687 129.908 46.2353 132.762 46.1137 133.599L45.9297 133.767C44.9889 132.772 44.032 129.712 45.2435 129.338ZM57.1405 145.774C57.1405 145.758 57.1443 145.744 57.1405 145.774V145.774Z" fill="#FF6347"/>
</svg>
